<svg xmlns="http://www.w3.org/2000/svg" viewBox="0 0 142.35 222.63"><defs><style>.cls-1,.cls-5{fill:#fff;}.cls-1{stroke:red;}.cls-1,.cls-2,.cls-3,.cls-5{stroke-linejoin:round;}.cls-1,.cls-2,.cls-4,.cls-5{stroke-width:5px;}.cls-2,.cls-3,.cls-4{fill:#6d3207;stroke-linecap:round;}.cls-2,.cls-3,.cls-4,.cls-5{stroke:#000;}.cls-3{stroke-width:3px;}.cls-4{stroke-miterlimit:10;}</style></defs><g id="Calque_2" data-name="Calque 2"><g id="Calque_10" data-name="Calque 10"><g id="Bras_devant" data-name="Bras devant"><circle class="cls-1" cx="118.67" cy="141.49" r="16.75"/><path class="cls-2" d="M21,183.24c-.63-2.37-6.66-7.18-6.66-7.18s-7.23-6.14.59-14.85l23.9,23.64c5.93,7.32,7.07,10.3,6,16.54-.61,5.11-4.6,8.53-9.19,11.55-4.18,2.76-14.47,9.36-19.87,6.48C10.66,216.71,1.16,202,2.66,198.68c1.17-2.57,11.3-7.42,14.78-9C19.1,188.9,22,187.18,21,183.24Z"/><line class="cls-3" x1="8.73" y1="211.96" x2="15.61" y2="207.88"/><line class="cls-3" x1="5.75" y1="205.59" x2="11.63" y2="202.11"/><line class="cls-3" x1="13.05" y1="217.45" x2="19.01" y2="214.09"/><path class="cls-4" d="M30.71,179,109,128.33l.85-.56a17,17,0,1,1,18,28.84l-.88.52L42.23,207.22"/><polyline class="cls-2" points="101.71 142.69 101.71 142.65 101.75 125.33 100.85 63.68 134.85 63.32 135.67 141.31 135.65 142.3 135.65 142.34"/><path class="cls-5" d="M139.44,24.27l.41,39-44,.46-.41-39a22,22,0,0,1,44-.46Z"/></g></g></g></svg>