<svg xmlns="http://www.w3.org/2000/svg" viewBox="0 0 112.12 161.45"><defs><style>.cls-1,.cls-6{fill:#fff;}.cls-1{stroke:red;}.cls-1,.cls-2,.cls-3,.cls-5,.cls-6{stroke-linejoin:round;}.cls-1,.cls-4,.cls-5,.cls-6{stroke-width:5px;}.cls-2,.cls-3,.cls-4,.cls-5{fill:#bc6226;stroke-linecap:round;}.cls-2,.cls-3,.cls-4,.cls-5,.cls-6{stroke:#000;}.cls-2{stroke-width:4px;}.cls-3{stroke-width:3px;}.cls-4{stroke-miterlimit:10;}</style></defs><g id="Calque_2" data-name="Calque 2"><g id="Calque_10" data-name="Calque 10"><g id="Bras_devant" data-name="Bras devant"><circle class="cls-1" cx="88.44" cy="141.49" r="16.75"/><path class="cls-2" d="M36.38,55.54s-4.61-7.79-3.17-10.72a12.26,12.26,0,0,1,6,3c1.81,1.73,4.49,9.78,3,14a17.21,17.21,0,0,1-3.81,5.91C32,73.84,29.13,75.15,23,74.62c-5.14-.15-8.9-3.82-12.31-8.13C7.55,62.56.07,52.9,2.46,47.26,4.72,42,18.57,31.21,22,32.41c2.67.94,8,8.4,9.88,11.73"/><line class="cls-3" x1="9.74" y1="39.27" x2="14.41" y2="45.77"/><line class="cls-3" x1="15.83" y1="35.75" x2="19.81" y2="41.3"/><line class="cls-3" x1="4.65" y1="44.07" x2="8.52" y2="49.7"/><path class="cls-4" d="M42.6,58l58.45,72.72.65.78a17,17,0,1,1-26.85,20.86l-.6-.82L15.73,72.36"/><polyline class="cls-5" points="71.52 111.33 70.63 63.68 104.62 63.32 105.44 141.31 105.42 142.3 105.42 142.34"/><path class="cls-6" d="M109.21,24.27l.41,39-44,.46-.41-39a22,22,0,1,1,44-.46Z"/></g></g></g></svg>