<svg xmlns="http://www.w3.org/2000/svg" viewBox="0 0 143.79 161.35"><defs><style>.cls-1,.cls-6{fill:#fff;}.cls-1{stroke:red;}.cls-1,.cls-2,.cls-3,.cls-5,.cls-6{stroke-linejoin:round;}.cls-1,.cls-4,.cls-5,.cls-6{stroke-width:5px;}.cls-2,.cls-4,.cls-5{fill:#efa26f;}.cls-2,.cls-3,.cls-4,.cls-5,.cls-6{stroke:#000;}.cls-2,.cls-3,.cls-4,.cls-5{stroke-linecap:round;}.cls-2{stroke-width:4px;}.cls-3{fill:none;stroke-width:3px;}.cls-4{stroke-miterlimit:10;}</style></defs><g id="Calque_2" data-name="Calque 2"><g id="Calque_10" data-name="Calque 10"><g id="Bras_devant" data-name="Bras devant"><circle class="cls-1" cx="120.11" cy="141.49" r="16.75"/><path class="cls-2" d="M33.72,88.09c-1.67,2.59-3,5-3,5s-1.86,9.47-12.5,4.59c0,0,7.66-15.14,10.55-20a12.65,12.65,0,0,1,6.71.15c2.38.79,8.24,6.93,8.7,11.38a17.31,17.31,0,0,1-.92,7c-3.18,8.27-5.23,10.68-11,12.84-4.71,2.05-9.68.34-14.6-2.1C13.14,104.64,2.25,99.09,2,93c-.22-5.75,7.71-21.39,11.3-21.75,2.81-.29,10.81,4.18,13.94,6.38"/><polyline class="cls-3" points="12.98 71.6 27.17 79.56 24.15 84.84 8.91 76.6"/><polyline class="cls-3" points="5.82 83.62 21.06 91.86 24.07 86.57 9.02 78.05"/><polyline class="cls-3" points="6.46 84.35 20.64 92.3 18.51 98.05 3.88 90.15"/><path class="cls-3" d="M2.71,90l13.62,7.61a2.93,2.93,0,0,1,.43,4.22c-1.9,2.33-3.45,1.06-3.45,1.06L3,96.63"/><path class="cls-3" d="M31.33,93.12s-.57,5.36,2.09,6.76"/><path class="cls-4" d="M43,88.46l83.91,37.79.92.43A17,17,0,1,1,112.42,157l-.89-.49L30.79,108.91"/><polyline class="cls-5" points="103.19 125.33 102.29 63.68 136.29 63.32 137.1 141.31 137.09 142.3 137.09 142.34"/><path class="cls-6" d="M140.88,24.27l.41,39-44,.46-.41-39a22,22,0,0,1,44-.46Z"/></g></g></g></svg>