<svg xmlns="http://www.w3.org/2000/svg" viewBox="0 0 172.1 161.86"><defs><style>.cls-1,.cls-5{fill:#fff;}.cls-1{stroke:red;}.cls-1,.cls-2,.cls-3,.cls-5{stroke-linejoin:round;}.cls-1,.cls-2,.cls-4,.cls-5{stroke-width:5px;}.cls-2,.cls-3,.cls-4{fill:#efa26f;stroke-linecap:round;}.cls-2,.cls-3,.cls-4,.cls-5{stroke:#000;}.cls-3{stroke-width:3px;}.cls-4{stroke-miterlimit:10;}</style></defs><g id="Calque_2" data-name="Calque 2"><g id="Calque_10" data-name="Calque 10"><g id="Bras_devant" data-name="Bras devant"><circle class="cls-1" cx="148.42" cy="141.49" r="16.75"/><path class="cls-2" d="M36,129.2h0a4.67,4.67,0,0,1,.38-.6l-8-5.62s-8.36-4.5-2.54-14.65l28.33,18.1c8,6.47,9.34,9.06,9.34,16.79a14,14,0,0,1-14,14l-33,0a14,14,0,0,1,0-28l19.49,0h0"/><line class="cls-3" x1="2.27" y1="143.25" x2="27.77" y2="143.11"/><line class="cls-3" x1="4.55" y1="136.24" x2="26.73" y2="136.11"/><line class="cls-3" x1="4.56" y1="150.17" x2="26.74" y2="150.19"/><path class="cls-4" d="M53.87,127.09l93.29-1.7,1,0a17,17,0,0,1,0,34l-1,0-98.44-2.21"/><polyline class="cls-2" points="131.46 142.69 131.46 142.65 131.5 125.33 130.6 63.68 164.6 63.32 165.42 141.31 165.4 142.3 165.4 142.34"/><path class="cls-5" d="M169.19,24.27l.41,39-44,.46-.41-39a22,22,0,0,1,44-.46Z"/></g></g></g></svg>