<svg xmlns="http://www.w3.org/2000/svg" viewBox="0 0 174.58 161.86"><defs><style>.cls-1,.cls-3,.cls-4,.cls-7{fill:#fff;}.cls-1{stroke:red;}.cls-1,.cls-2,.cls-3,.cls-4,.cls-6,.cls-7{stroke-linejoin:round;}.cls-1,.cls-5,.cls-6,.cls-7{stroke-width:5px;}.cls-2,.cls-5,.cls-6{fill:#bc6226;}.cls-2,.cls-3,.cls-4,.cls-5,.cls-6,.cls-7{stroke:#000;}.cls-2,.cls-3,.cls-4,.cls-5,.cls-6{stroke-linecap:round;}.cls-2,.cls-4{stroke-width:4px;}.cls-3{stroke-width:3px;}.cls-5{stroke-miterlimit:10;}</style></defs><g id="Calque_2" data-name="Calque 2"><g id="Calque_10" data-name="Calque 10"><g id="Bras_devant" data-name="Bras devant"><circle class="cls-1" cx="150.9" cy="141.49" r="16.75"/><path class="cls-2" d="M51.34,131.74a30.17,30.17,0,0,1-11.26-5.1,12.38,12.38,0,0,1,6.1-2.8c2.48-.33,10.44,2.63,12.79,6.43a17.2,17.2,0,0,1,2.22,6.67c.75,8.83,0,11.89-4.3,16.36-3.34,3.91-8.56,4.53-14,4.49-5,0-17.24-.27-20.13-5.66-1.13-2.12-1.77-5.15-1.86-9.82L5.74,143.38a3.43,3.43,0,0,1-3.65-2.6c-.74-2.91,3.14-3.46,3.14-3.46l21.05-2.89,0-1L7.21,129.24s-3.32-.47-2.71-3.4c.52-2.5,3.35-2.65,3.35-2.65L39,126.56"/><line class="cls-3" x1="21.76" y1="148.61" x2="28.58" y2="149.04"/><line class="cls-4" x1="20.98" y1="142.36" x2="27.18" y2="142.16"/><path class="cls-5" d="M56.35,127.09l93.28-1.7,1,0a17,17,0,0,1,.06,34l-1,0-98.44-2.21"/><polyline class="cls-6" points="133.94 142.69 133.94 142.65 133.98 125.33 133.08 63.68 167.08 63.32 167.9 141.31 167.88 142.3 167.88 142.34"/><path class="cls-7" d="M171.67,24.27l.41,39-44,.46-.41-39a22,22,0,0,1,44-.46Z"/></g></g></g></svg>