<svg xmlns="http://www.w3.org/2000/svg" viewBox="0 0 61.93 288.57"><defs><style>.cls-1,.cls-5{fill:#fff;}.cls-1{stroke:red;}.cls-1,.cls-2,.cls-3,.cls-5{stroke-linejoin:round;}.cls-1,.cls-2,.cls-4,.cls-5{stroke-width:5px;}.cls-2,.cls-3,.cls-4{fill:#ffccb0;stroke-linecap:round;}.cls-2,.cls-3,.cls-4,.cls-5{stroke:#000;}.cls-3{stroke-width:3px;}.cls-4{stroke-miterlimit:10;}</style></defs><g id="Calque_2" data-name="Calque 2"><g id="Calque_10" data-name="Calque 10"><g id="Bras_devant" data-name="Bras devant"><circle class="cls-1" cx="38.24" cy="141.49" r="16.75"/><path class="cls-2" d="M23.49,252.42h0a5.16,5.16,0,0,1-.6-.39l-5.71,8s-4.59,8.31-14.68,2.38l18.42-28.12c6.55-7.95,9.16-9.24,16.89-9.16a14,14,0,0,1,13.83,14.17l-.4,33a14,14,0,0,1-28-.33l.24-19.49h0"/><line class="cls-3" x1="37.16" y1="286.3" x2="37.3" y2="260.8"/><line class="cls-3" x1="30.17" y1="283.94" x2="30.29" y2="261.76"/><line class="cls-3" x1="44.1" y1="284.09" x2="44.37" y2="261.91"/><path class="cls-4" d="M21.58,234.52l-.66-93.3,0-1a17,17,0,1,1,34,.33l0,1L51.55,240"/><polyline class="cls-2" points="21.29 142.69 21.29 142.65 21.33 125.33 20.43 63.68 54.43 63.32 55.24 141.31 55.22 142.3 55.22 142.34"/><path class="cls-5" d="M59,24.27l.41,39-44,.46-.41-39a22,22,0,1,1,44-.46Z"/></g></g></g></svg>