<svg xmlns="http://www.w3.org/2000/svg" viewBox="0 0 156.54 221.06"><defs><style>.cls-1,.cls-6{fill:#fff;}.cls-1{stroke:red;}.cls-1,.cls-2,.cls-3,.cls-5,.cls-6{stroke-linejoin:round;}.cls-1,.cls-4,.cls-5,.cls-6{stroke-width:5px;}.cls-2,.cls-4,.cls-5{fill:#efa26f;}.cls-2,.cls-3,.cls-4,.cls-5,.cls-6{stroke:#000;}.cls-2,.cls-3,.cls-4,.cls-5{stroke-linecap:round;}.cls-2{stroke-width:4px;}.cls-3{fill:none;stroke-width:3px;}.cls-4{stroke-miterlimit:10;}</style></defs><g id="Calque_2" data-name="Calque 2"><g id="Calque_10" data-name="Calque 10"><g id="Bras_devant" data-name="Bras devant"><circle class="cls-1" cx="132.86" cy="141.49" r="16.75"/><path class="cls-2" d="M28.51,189.76,3,206a2.94,2.94,0,0,0,0,4.25c2.11,2.13,3.53.73,3.53.73L33,194.35"/><path class="cls-2" d="M41.53,188.26c1.47,2.7,2.9,5,2.9,5s7.42,6.17-2,13.17c0,0-9.62-14-12.5-18.84a12.57,12.57,0,0,1,3.35-5.82c1.83-1.71,10-3.91,14.15-2.18a17.13,17.13,0,0,1,5.67,4.14c5.74,6.75,6.87,9.7,6,15.82-.45,5.12-4.34,8.66-8.84,11.81-4.1,2.88-14.18,9.78-19.67,7.06-2.94-1.45-7.42-6.77-10.48-11.69"/><polyline class="cls-3" points="24.23 210.61 38.77 201.17 35.58 196 20.88 205.13"/><polyline class="cls-3" points="25.18 210.39 38.96 201.75 42.98 206.38 29.04 215.43"/><path class="cls-3" d="M28.3,216.37l13.21-8.31a2.93,2.93,0,0,1,3.91,1.64c1.13,2.78-.72,3.53-.72,3.53l-10.41,6.1"/><path class="cls-3" d="M44.8,192.76s4.43,3.07,6.93,1.41"/><path class="cls-4" d="M46.9,180l76.33-51.69.85-.56a17,17,0,1,1,18,28.84l-.88.52L58.42,201.22"/><polyline class="cls-5" points="115.9 142.69 115.9 142.65 115.94 125.33 115.04 63.68 149.04 63.32 149.86 141.31 149.84 142.3 149.84 142.34"/><path class="cls-6" d="M153.63,24.27l.41,39-44,.46-.4-39a22,22,0,1,1,44-.46Z"/></g></g></g></svg>