<svg xmlns="http://www.w3.org/2000/svg" viewBox="0 0 113.6 161.45"><defs><style>.cls-1,.cls-5{fill:#fff;}.cls-1{stroke:red;}.cls-1,.cls-2,.cls-3,.cls-5{stroke-linejoin:round;}.cls-1,.cls-2,.cls-4,.cls-5{stroke-width:5px;}.cls-2,.cls-3,.cls-4{fill:#ffccb0;stroke-linecap:round;}.cls-2,.cls-3,.cls-4,.cls-5{stroke:#000;}.cls-3{stroke-width:3px;}.cls-4{stroke-miterlimit:10;}</style></defs><g id="Calque_2" data-name="Calque 2"><g id="Calque_10" data-name="Calque 10"><g id="Bras_devant" data-name="Bras devant"><circle class="cls-1" cx="89.92" cy="141.49" r="16.75"/><path class="cls-2" d="M39.47,49.52c2.32-.78,6.74-7.11,6.74-7.11s5.67-7.6,14.86-.35L39,67.41c-6.93,6.39-9.83,7.71-16.14,7-5.13-.27-8.8-4-12.1-8.43C7.74,62,.5,52.15,3,46.57,5.41,41.33,19.52,30.91,22.89,32.2c2.64,1,8.12,10.8,9.94,14.17C33.7,48,35.6,50.81,39.47,49.52Z"/><line class="cls-3" x1="10.03" y1="39.1" x2="14.53" y2="45.71"/><line class="cls-3" x1="16.2" y1="35.73" x2="20.04" y2="41.37"/><line class="cls-3" x1="4.82" y1="43.77" x2="8.55" y2="49.49"/><path class="cls-4" d="M44.08,59l58.45,71.72.65.78a17,17,0,1,1-26.85,20.86l-.61-.82L17.2,72.36"/><polyline class="cls-2" points="73 111.33 72.1 63.68 106.1 63.32 106.92 141.31 106.9 142.3 106.9 142.34"/><path class="cls-5" d="M110.69,24.27l.41,39-44,.46-.41-39a22,22,0,0,1,44-.46Z"/></g></g></g></svg>