<svg xmlns="http://www.w3.org/2000/svg" viewBox="0 0 171.93 161.86"><defs><style>.cls-1,.cls-3,.cls-6{fill:#fff;}.cls-1{stroke:red;}.cls-1,.cls-2,.cls-3,.cls-5,.cls-6{stroke-linejoin:round;}.cls-1,.cls-4,.cls-5,.cls-6{stroke-width:5px;}.cls-2,.cls-4,.cls-5{fill:#efa26f;}.cls-2,.cls-3,.cls-4,.cls-5,.cls-6{stroke:#000;}.cls-2,.cls-3,.cls-4,.cls-5{stroke-linecap:round;}.cls-2{stroke-width:4px;}.cls-3{stroke-width:3px;}.cls-4{stroke-miterlimit:10;}</style></defs><g id="Calque_2" data-name="Calque 2"><g id="Calque_10" data-name="Calque 10"><g id="Bras_devant" data-name="Bras devant"><circle class="cls-1" cx="148.25" cy="141.49" r="16.75"/><path class="cls-2" d="M47.5,131.09a26.66,26.66,0,0,1-10.29-4.59,12.46,12.46,0,0,1,6.08-2.83c2.48-.34,10.45,2.56,12.83,6.35a17.11,17.11,0,0,1,2.26,6.65c.81,8.82,0,11.89-4.19,16.38-3.32,3.94-8.53,4.6-14,4.59-5,0-17.24-.16-20.16-5.53-1.57-2.89-2.18-9.82-1.86-15.6l3.39-9.7,16.23.62"/><path class="cls-2" d="M34.77,127.43,4.53,126s-3,1-2.47,4,2.45,3.12,2.45,3.12l21.3,1.69"/><line class="cls-3" x1="18.28" y1="141.02" x2="26.28" y2="141.35"/><line class="cls-3" x1="18.92" y1="147.98" x2="25.74" y2="148.41"/><path class="cls-4" d="M53.7,127.09l93.28-1.7,1,0a17,17,0,0,1,.06,34l-1,0L48.6,157.12"/><polyline class="cls-5" points="131.29 142.69 131.29 142.65 131.33 125.33 130.43 63.68 164.43 63.32 165.25 141.31 165.23 142.3 165.23 142.34"/><path class="cls-6" d="M169,24.27l.41,39-44,.46-.41-39a22,22,0,0,1,44-.46Z"/></g></g></g></svg>