<svg xmlns="http://www.w3.org/2000/svg" viewBox="0 0 92.54 274.89"><defs><style>.cls-1,.cls-3,.cls-6{fill:#fff;}.cls-1{stroke:red;}.cls-1,.cls-2,.cls-3,.cls-5,.cls-6{stroke-linejoin:round;}.cls-1,.cls-4,.cls-5,.cls-6{stroke-width:5px;}.cls-2,.cls-4,.cls-5{fill:#efa26f;}.cls-2,.cls-3,.cls-4,.cls-5,.cls-6{stroke:#000;}.cls-2,.cls-3,.cls-4,.cls-5{stroke-linecap:round;}.cls-2{stroke-width:4px;}.cls-3{stroke-width:3px;}.cls-4{stroke-miterlimit:10;}</style></defs><g id="Calque_2" data-name="Calque 2"><g id="Calque_10" data-name="Calque 10"><g id="Bras_devant" data-name="Bras devant"><circle class="cls-1" cx="68.86" cy="141.49" r="16.75"/><path class="cls-2" d="M24,231.6a26.61,26.61,0,0,1-8.36,7.55,12.48,12.48,0,0,1-.13-6.7c.69-2.41,6.57-8.53,11-9.17a17.13,17.13,0,0,1,7,.62c8.4,2.82,10.9,4.77,13.29,10.46,2.26,4.62.75,9.66-1.47,14.68-2,4.58-7.11,15.7-13.22,16.2-3.27.27-9.85-2-15-4.61l-7.5-7L16.74,239"/><path class="cls-2" d="M15.53,241.76,2,268.85s-.29,3.12,2.62,3.86,3.85-1,3.85-1l10.15-18.79"/><line class="cls-3" x1="21.29" y1="262.33" x2="24.83" y2="255.15"/><line class="cls-3" x1="27.91" y1="264.57" x2="31.06" y2="258.5"/><path class="cls-4" d="M21.94,225,53,137l.32-1A17,17,0,0,1,85.2,147.87l-.38.95L48.29,240.26"/><polyline class="cls-5" points="51.9 142.69 51.9 142.65 51.94 125.33 51.05 63.68 85.04 63.32 85.86 141.31 85.84 142.3 85.84 142.34"/><path class="cls-6" d="M89.63,24.27l.41,39-44,.46-.4-39a22,22,0,1,1,44-.46Z"/></g></g></g></svg>