<svg xmlns="http://www.w3.org/2000/svg" viewBox="0 0 103.94 166.13"><defs><style>.cls-1{fill:#ffd9b3;}.cls-1,.cls-2,.cls-3{stroke:#000;stroke-linecap:round;stroke-width:5px;}.cls-1,.cls-3{stroke-linejoin:round;}.cls-2{fill:none;stroke-miterlimit:10;}.cls-3{fill:#231a14;}</style></defs><g id="Calque_2" data-name="Calque 2"><g id="Calque_9" data-name="Calque 9"><g id="Tête"><path class="cls-1" d="M89.53,74.47a8.94,8.94,0,0,0-4.73,2.19"/><path class="cls-1" d="M89.76,92.32a9,9,0,0,1-4.43-1.79"/><path class="cls-1" d="M99.78,83.38a9,9,0,0,1-9,9,8.47,8.47,0,0,1-1-.06c0,1,0,1.73,0,2.06,0,2.1-.5,40.25-.5,40.25v8c0,.31,0,.62,0,.92a21,21,0,0,1-41.95-.29c0-.21,0-.42,0-.63V132.11a38,38,0,0,1-33.5-37.73s-.5-37.4-.5-39.5a38,38,0,0,1,76,0c0,1.06.13,10.29.25,19.59a8.66,8.66,0,0,1,1.25-.09A9,9,0,0,1,99.78,83.38Z"/><path class="cls-1" d="M89.76,92.32a9,9,0,0,1-4.43-1.79"/><path class="cls-1" d="M89.53,74.47a8.94,8.94,0,0,0-4.73,2.19"/><path class="cls-1" d="M47.28,132.11a37.12,37.12,0,0,0,4.5.27A37.78,37.78,0,0,0,71.28,127"/></g><line class="cls-2" x1="13.28" y1="70.63" x2="13.28" y2="49.63"/><path class="cls-3" d="M83.28,49.63v29s4-6,11-5V52.57Z"/><path class="cls-3" d="M98.28,41.63s4-2,3-6c-1-4.16-7-2.9-7-2.9s4.53-4.56,1-8.1a6,6,0,0,0-8-1s3-5-2-9.61-9-.39-9-.39,2.2-6.52-5-9c-6-2-9,4-9,4s.44-5-6-6-8,4-8,4a7.1,7.1,0,0,0-8-4c-5.92,1-5,7-5,7a6.76,6.76,0,0,0-9.5-2.75c-5.72,2.86-2.13,8.84-2.13,8.84s-4.57-4.33-10.37.91c-4.33,3.91,0,10,0,10a6.44,6.44,0,0,0-7,3,7.59,7.59,0,0,0,3,9c-7,0-9,9-4,12,6.29,3.78,8.33-.7,8.33-.7s1.75,4.13,7.21,1.92,4.46-8.22,4.46-8.22,3,4,7,2,5-7,5-7,3.12,4,7,3a7.27,7.27,0,0,0,5-5s2,5,7,5a7.94,7.94,0,0,0,7-4s-.64,5.15,4,7c5,2,7-1,7-1s-2.22,4.39,3,7c4,2,6-1,6-1s1,5.85,6.48,4.93,3.52-5.93,3.52-5.93,3,4,6.5-.31C102.56,44.89,98.28,41.63,98.28,41.63Z"/></g></g></svg>