<svg xmlns="http://www.w3.org/2000/svg" viewBox="0 0 157.94 161.35"><defs><style>.cls-1,.cls-5{fill:#fff;}.cls-1{stroke:#ff0028;}.cls-1,.cls-2,.cls-3,.cls-5{stroke-linejoin:round;}.cls-1,.cls-2,.cls-4,.cls-5{stroke-width:5px;}.cls-2,.cls-3,.cls-4{fill:#bc6226;stroke-linecap:round;}.cls-2,.cls-3,.cls-4,.cls-5{stroke:#000;}.cls-3{stroke-width:3px;}.cls-4{stroke-miterlimit:10;}</style></defs><g id="Calque_2" data-name="Calque 2"><g id="Calque_10" data-name="Calque 10"><g id="Bras_devant" data-name="Bras devant"><circle class="cls-1" cx="134.26" cy="141.49" r="16.75"/><path class="cls-2" d="M40.23,79.23h0a4.41,4.41,0,0,1,.62-.37l-4.6-8.65S30.84,62.43,40.64,56l17,29c4.21,9.39,4.21,12.31.7,19.2a14,14,0,0,1-18.83,6.11l-29.4-15A14,14,0,0,1,22.86,70.37l17.37,8.86h0"/><line class="cls-3" x1="3.79" y1="76.46" x2="26.58" y2="87.89"/><line class="cls-3" x1="9" y1="71.24" x2="28.83" y2="81.19"/><line class="cls-3" x1="2.69" y1="83.66" x2="22.46" y2="93.74"/><path class="cls-4" d="M57.11,85.46,141,126.25l.92.43A17,17,0,0,1,126.58,157l-.9-.49L38.94,109.91"/><polyline class="cls-2" points="117.34 125.33 116.44 63.68 150.44 63.32 151.25 141.31 151.24 142.3 151.24 142.34"/><path class="cls-5" d="M155,24.27l.41,39-44,.46-.41-39a22,22,0,0,1,44-.46Z"/></g></g></g></svg>