<svg xmlns="http://www.w3.org/2000/svg" viewBox="0 0 155.99 161.86"><defs><style>.cls-1,.cls-6{fill:#fff;}.cls-1{stroke:red;}.cls-1,.cls-2,.cls-3,.cls-5,.cls-6{stroke-linejoin:round;}.cls-1,.cls-4,.cls-5,.cls-6{stroke-width:5px;}.cls-2,.cls-4,.cls-5{fill:#efa26f;}.cls-2,.cls-3,.cls-4,.cls-5,.cls-6{stroke:#000;}.cls-2,.cls-3,.cls-4,.cls-5{stroke-linecap:round;}.cls-2{stroke-width:4px;}.cls-3{fill:none;stroke-width:3px;}.cls-4{stroke-miterlimit:10;}</style></defs><g id="Calque_2" data-name="Calque 2"><g id="Calque_10" data-name="Calque 10"><g id="Bras_devant" data-name="Bras devant"><circle class="cls-1" cx="132.31" cy="141.49" r="16.75"/><path class="cls-2" d="M30.14,133.65c-.31,3.06-.43,5.78-.43,5.78s2.63,9.28-9.06,9.76c0,0,0-17,.33-22.61A12.56,12.56,0,0,1,27,123.67c2.47-.38,10.48,2.43,12.91,6.19a17.25,17.25,0,0,1,2.34,6.62c.92,8.81.19,11.89-4,16.44-3.26,4-8.47,4.69-14,4.75-5,.06-17.24.06-20.23-5.28-2.81-5-2.83-22.57.2-24.52,2.38-1.53,11.53-1.17,15.32-.64"/><polyline class="cls-3" points="4.18 128.36 20.43 129.01 20.14 135.09 2.82 134.66"/><polyline class="cls-3" points="3.25 142.32 20.57 142.75 20.86 136.67 3.57 135.9"/><polyline class="cls-3" points="4.15 142.68 20.4 143.33 21.11 149.42 4.49 149.02"/><path class="cls-3" d="M3.35,149.37l15.59.61a2.94,2.94,0,0,1,2.3,3.56c-.64,2.93-2.59,2.51-2.59,2.51l-12-.85"/><path class="cls-3" d="M30.3,139.22s1.92,5,4.92,5.07"/><path class="cls-4" d="M38.76,130.09l92.29-4.7,1,0a17,17,0,0,1,.05,34l-1,0-94.44-5.21"/><polyline class="cls-5" points="115.35 142.69 115.35 142.65 115.39 125.33 114.49 63.68 148.49 63.32 149.31 141.31 149.29 142.3 149.29 142.34"/><path class="cls-6" d="M153.08,24.27l.41,39-44,.46-.4-39a22,22,0,1,1,44-.46Z"/></g></g></g></svg>