<svg xmlns="http://www.w3.org/2000/svg" viewBox="0 0 150.87 161.35"><defs><style>.cls-1,.cls-6{fill:#fff;}.cls-1{stroke:red;}.cls-1,.cls-2,.cls-3,.cls-5,.cls-6{stroke-linejoin:round;}.cls-1,.cls-4,.cls-5,.cls-6{stroke-width:5px;}.cls-2,.cls-4,.cls-5{fill:#ffccb0;}.cls-2,.cls-3,.cls-4,.cls-5,.cls-6{stroke:#000;}.cls-2,.cls-3,.cls-4,.cls-5{stroke-linecap:round;}.cls-2{stroke-width:4px;}.cls-3{fill:none;stroke-width:3px;}.cls-4{stroke-miterlimit:10;}</style></defs><g id="Calque_2" data-name="Calque 2"><g id="Calque_10" data-name="Calque 10"><g id="Bras_devant" data-name="Bras devant"><circle class="cls-1" cx="127.19" cy="141.49" r="16.75"/><path class="cls-2" d="M32.76,77.13,5.87,63.23a2.94,2.94,0,0,0-3.68,2.11c-.79,2.9,1.14,3.42,1.14,3.42L31.07,83.35"/><path class="cls-2" d="M40.61,87.62c-1.59,2.63-2.87,5-2.87,5s-1.59,9.51-12.37,4.93c0,0,7.24-15.35,10-20.28a12.48,12.48,0,0,1,6.7,0c2.4.73,8.43,6.7,9,11.13a17.16,17.16,0,0,1-.72,7c-2.94,8.35-4.92,10.82-10.64,13.14-4.66,2.19-9.67.61-14.66-1.69-4.55-2.09-15.6-7.33-16-13.44-.22-3.27,2.11-9.82,4.82-14.94"/><polyline class="cls-3" points="12.6 83.93 28.06 91.74 30.93 86.38 15.64 78.28"/><polyline class="cls-3" points="13.26 84.65 27.66 92.2 25.69 98 10.85 90.52"/><path class="cls-3" d="M9.67,90.35,23.5,97.57a2.94,2.94,0,0,1,.54,4.21c-1.83,2.38-3.41,1.16-3.41,1.16L10.12,97"/><path class="cls-3" d="M38.36,92.72s-.41,5.37,2.28,6.69"/><path class="cls-4" d="M50,88.46,134,126.25l.92.43A17,17,0,0,1,119.51,157l-.9-.49L37.87,108.91"/><polyline class="cls-5" points="110.27 125.33 109.37 63.68 143.37 63.32 144.19 141.31 144.17 142.3 144.17 142.34"/><path class="cls-6" d="M148,24.27l.41,39-44,.46-.41-39a22,22,0,0,1,44-.46Z"/></g></g></g></svg>