<svg xmlns="http://www.w3.org/2000/svg" viewBox="0 0 172.91 161.86"><defs><style>.cls-1,.cls-4,.cls-6{fill:#fff;}.cls-1{stroke:red;}.cls-1,.cls-3,.cls-4,.cls-6{stroke-linejoin:round;}.cls-1,.cls-3,.cls-5,.cls-6{stroke-width:5px;}.cls-2{fill:none;stroke-width:2px;}.cls-2,.cls-3,.cls-4,.cls-5,.cls-6{stroke:#000;}.cls-2,.cls-3,.cls-4,.cls-5{stroke-linecap:round;}.cls-2,.cls-5{stroke-miterlimit:10;}.cls-3,.cls-5{fill:#bc6226;}.cls-4{stroke-width:3px;}</style></defs><g id="Calque_2" data-name="Calque 2"><g id="Calque_10" data-name="Calque 10"><g id="Bras_devant" data-name="Bras devant"><circle class="cls-1" cx="149.23" cy="141.49" r="16.75"/><line class="cls-2" x1="2.56" y1="142.57" x2="28.06" y2="142.64"/><line class="cls-2" x1="4.89" y1="135.58" x2="27.07" y2="135.64"/><line class="cls-2" x1="4.86" y1="149.58" x2="27.04" y2="149.64"/><path class="cls-3" d="M42.22,142.6A9,9,0,0,1,35,132.14a9.21,9.21,0,0,1,1.13-3h0a3.64,3.64,0,0,1,.39-.6l-8-5.69s-8.32-4.57-2.42-14.67L54.3,126.51c8,6.53,9.26,9.13,9.2,16.87a14,14,0,0,1-14.13,13.86l-33-.3a14,14,0,0,1,.25-28l19.5.18h0"/><line class="cls-4" x1="2.25" y1="142.81" x2="27.75" y2="143.05"/><line class="cls-4" x1="4.63" y1="135.83" x2="26.81" y2="136.04"/><line class="cls-4" x1="4.5" y1="149.83" x2="26.68" y2="150.04"/><path class="cls-5" d="M54.68,127.09l93.28-1.7,1,0a17,17,0,0,1,.06,34l-1,0-98.44-2.21"/><polyline class="cls-3" points="132.27 142.69 132.27 142.65 132.31 125.33 131.41 63.68 165.41 63.32 166.23 141.31 166.21 142.3 166.21 142.34"/><path class="cls-6" d="M170,24.27l.41,39-44,.46-.41-39a22,22,0,0,1,44-.46Z"/></g></g></g></svg>