<svg xmlns="http://www.w3.org/2000/svg" viewBox="0 0 120.61 157.1"><defs><style>.cls-1{fill:#231a14;}.cls-1,.cls-2{stroke:#000;stroke-linecap:round;stroke-linejoin:round;stroke-width:5px;}.cls-2{fill:#ffd9b3;}</style></defs><g id="Calque_2" data-name="Calque 2"><g id="Calque_9" data-name="Calque 9"><path class="cls-1" d="M10.83,143.6H113.55c-2.28,0,9.28-6,2.28-17-5.1-8-13-16-11-28,1.32-7.95,8-17,7-25-1.1-8.76-11-22-11-32s-1-26-15.91-34.75C66.65-3.87,52.32,8.6,52.32,8.6c-5.51-6-15.49-9-26.49,0-12.48,10.21-11,38-11,38s1,18-8,31C-1,89,3.34,96.5,8,102a18.14,18.14,0,0,1,1.66,21.38C5.47,130.09.85,138.94,10.83,143.6Z"/><g id="Tête"><path class="cls-2" d="M94.08,65.44a8.94,8.94,0,0,0-4.73,2.19"/><path class="cls-2" d="M94.31,83.29a9,9,0,0,1-4.43-1.79"/><path class="cls-2" d="M104.33,74.35a9,9,0,0,1-9,9,8.47,8.47,0,0,1-1-.06c0,1,0,1.73,0,2.06,0,2.1-.5,40.25-.5,40.25v8c0,.31,0,.62,0,.92a21,21,0,0,1-41.95-.29c0-.21,0-.42,0-.63V123.08a38,38,0,0,1-33.5-37.73s-.5-37.4-.5-39.5a38,38,0,0,1,76,0c0,1.06.13,10.29.25,19.59a8.66,8.66,0,0,1,1.25-.09A9,9,0,0,1,104.33,74.35Z"/><path class="cls-2" d="M94.31,83.29a9,9,0,0,1-4.43-1.79"/><path class="cls-2" d="M94.08,65.44a8.94,8.94,0,0,0-4.73,2.19"/><path class="cls-2" d="M51.83,123.08a37.12,37.12,0,0,0,4.5.27A37.78,37.78,0,0,0,75.83,118"/></g><path class="cls-1" d="M52.32,8.6s2.51,19-18.49,30c-2.89,1.51-7,3-8,11-1.76,14-12.12,11-12.12,11a204.88,204.88,0,0,0,2-29.89C15.83,12.6,35.81-6.4,52.32,8.6Z"/><path class="cls-1" d="M53.8,8.6s-6.64,17.37,15,27c9,4,10,13,13,17,7.29,9.73,24,8,24,8s-6-7.89-6-26C99.83,8.6,70.31-6.4,53.8,8.6Z"/></g></g></svg>