<svg xmlns="http://www.w3.org/2000/svg" viewBox="0 0 146.56 161.35"><defs><style>.cls-1,.cls-5{fill:#fff;}.cls-1{stroke:red;}.cls-1,.cls-2,.cls-3,.cls-5{stroke-linejoin:round;}.cls-1,.cls-2,.cls-4,.cls-5{stroke-width:5px;}.cls-2,.cls-4{fill:#efa26f;}.cls-2,.cls-3,.cls-4,.cls-5{stroke:#000;}.cls-2,.cls-3,.cls-4{stroke-linecap:round;}.cls-3{fill:none;stroke-width:3px;}.cls-4{stroke-miterlimit:10;}</style></defs><g id="Calque_2" data-name="Calque 2"><g id="Calque_10" data-name="Calque 10"><g id="Bras_devant" data-name="Bras devant"><circle class="cls-1" cx="122.88" cy="141.49" r="16.75"/><path class="cls-2" d="M37.34,80.25c1.85-1.6,3.54-9.13,3.54-9.13s2.37-9.19,13.62-6L43.69,97c-4,8.53-6.17,10.86-12.27,12.61-4.86,1.69-9.68-.4-14.4-3.21-4.31-2.56-14.74-8.92-14.52-15,.22-5.76,9.32-20.74,12.93-20.83,2.83-.07,11.62,6.91,14.58,9.34C31.42,81,34.25,82.91,37.34,80.25Z"/><path class="cls-3" d="M15.08,70.88l14.39,9.55a2.94,2.94,0,0,1,.1,4.24c-2.07,2.17-3.52.79-3.52.79L10.64,75.55"/><path class="cls-3" d="M8.71,83.38l14.57,9.38s1.45,1.38,3.52-.8a2.94,2.94,0,0,0-.11-4.24L10.64,77"/><path class="cls-3" d="M7.6,83.09,22,92.64a2.94,2.94,0,0,1,.1,4.24c-2.07,2.17-3.52.79-3.52.79l-14-9"/><path class="cls-3" d="M3.44,88.39l13,8.63a2.94,2.94,0,0,1,.1,4.24c-2.07,2.17-3.52.79-3.52.79l-9.83-7"/><path class="cls-3" d="M33,91.55s-2.91,4.19-1.38,8.69"/><path class="cls-4" d="M45.74,85.46l83.91,40.79.92.43A17,17,0,1,1,115.2,157l-.9-.49L27.57,109.91"/><polyline class="cls-2" points="105.96 125.33 105.06 63.68 139.06 63.32 139.88 141.31 139.86 142.3 139.86 142.34"/><path class="cls-5" d="M143.65,24.27l.41,39-44,.46-.41-39a22,22,0,0,1,44-.46Z"/></g></g></g></svg>