<svg xmlns="http://www.w3.org/2000/svg" viewBox="0 0 113.44 161.45"><defs><style>.cls-1,.cls-6{fill:#fff;}.cls-1{stroke:red;}.cls-1,.cls-2,.cls-3,.cls-5,.cls-6{stroke-linejoin:round;}.cls-1,.cls-4,.cls-5,.cls-6{stroke-width:5px;}.cls-2,.cls-4,.cls-5{fill:#bc6226;}.cls-2,.cls-3,.cls-4,.cls-5,.cls-6{stroke:#000;}.cls-2,.cls-3,.cls-4,.cls-5{stroke-linecap:round;}.cls-2{stroke-width:4px;}.cls-3{fill:none;stroke-width:3px;}.cls-4{stroke-miterlimit:10;}</style></defs><g id="Calque_2" data-name="Calque 2"><g id="Calque_10" data-name="Calque 10"><g id="Bras_devant" data-name="Bras devant"><circle class="cls-1" cx="89.76" cy="141.49" r="16.75"/><path class="cls-2" d="M31.06,42.2,13.74,17.38a2.94,2.94,0,0,0-4.24.15c-2,2.2-.58,3.56-.58,3.56L26.67,46.93"/><path class="cls-2" d="M33.12,55.14c-2.63,1.59-4.88,3.12-4.88,3.12S22.39,65.94,15,56.87c0,0,13.55-10.21,18.28-13.3a12.7,12.7,0,0,1,6,3.09c1.78,1.76,4.34,9.85,2.79,14a17.11,17.11,0,0,1-3.89,5.85c-6.5,6-9.4,7.29-15.54,6.67-5.14-.23-8.84-4-12.19-8.32-3-4-10.39-13.75-7.91-19.35,1.33-3,6.45-7.71,11.23-11"/><polyline class="cls-3" points="10.05 38.83 20.1 52.95 25.14 49.53 15.38 35.24"/><polyline class="cls-3" points="10.3 39.77 19.53 53.16 15.09 57.38 5.43 43.85"/><path class="cls-3" d="M4.47,43.15,13.34,56a2.94,2.94,0,0,1-1.47,4c-2.73,1.25-3.56-.57-3.56-.57L1.76,49.26"/><path class="cls-3" d="M28.76,58.61s-2.87,4.56-1.1,7"/><path class="cls-4" d="M41.92,60l60.45,70.72.65.78a17,17,0,1,1-26.85,20.86l-.6-.82L21.05,72.36"/><polyline class="cls-5" points="72.84 111.33 71.94 63.68 105.94 63.32 106.76 141.31 106.74 142.3 106.74 142.34"/><path class="cls-6" d="M110.53,24.27l.41,39-44,.46-.4-39a22,22,0,1,1,44-.46Z"/></g></g></g></svg>