<svg xmlns="http://www.w3.org/2000/svg" viewBox="0 0 91.5 162"><defs><style>.cls-1{fill:#6d3207;}.cls-1,.cls-2{stroke:#000;stroke-linecap:round;stroke-linejoin:round;stroke-width:5px;}.cls-2{fill:#0c0500;}</style></defs><g id="Calque_2" data-name="Calque 2"><g id="Calque_9" data-name="Calque 9"><g id="Tête"><path class="cls-1" d="M78.75,70.34A8.94,8.94,0,0,0,74,72.53"/><path class="cls-1" d="M79,88.19a9,9,0,0,1-4.43-1.79"/><path class="cls-1" d="M89,79.25a9,9,0,0,1-9,9,8.47,8.47,0,0,1-1-.06c0,1,0,1.73,0,2.06,0,2.1-.5,40.25-.5,40.25v8c0,.31,0,.62,0,.92a21,21,0,0,1-41.95-.29c0-.21,0-.42,0-.63V128A38,38,0,0,1,3,90.25s-.5-37.4-.5-39.5a38,38,0,0,1,76,0c0,1.06.13,10.29.25,19.59A8.66,8.66,0,0,1,80,70.25,9,9,0,0,1,89,79.25Z"/><path class="cls-1" d="M79,88.19a9,9,0,0,1-4.43-1.79"/><path class="cls-1" d="M78.75,70.34A8.94,8.94,0,0,0,74,72.53"/><path class="cls-1" d="M36.5,128a37.12,37.12,0,0,0,4.5.27,37.78,37.78,0,0,0,19.5-5.39"/></g><path class="cls-2" d="M23.5,3.5c9,11,17,9.25,17,9.25C81.5,12,79,51.5,79,51.5l.52,19c-6.52,1.26-9,5-9,5s-1-17-3-29-17-13-17-13-19-1-31,0-16,14-16,14L2.7,67.76,2.54,49.05c0-15.55,1-32.55,2-43.55a13.62,13.62,0,0,0,9,9V2.5s4.3,8.5,9.65,10.25Z"/></g></g></svg>