<svg xmlns="http://www.w3.org/2000/svg" viewBox="0 0 83.56 267.58"><defs><style>.cls-1,.cls-6{fill:#fff;}.cls-1{stroke:red;}.cls-1,.cls-2,.cls-3,.cls-5,.cls-6{stroke-linejoin:round;}.cls-1,.cls-4,.cls-5,.cls-6{stroke-width:5px;}.cls-2,.cls-4,.cls-5{fill:#ffd9b3;}.cls-2,.cls-3,.cls-4,.cls-5,.cls-6{stroke:#000;}.cls-2,.cls-3,.cls-4,.cls-5{stroke-linecap:round;}.cls-2{stroke-width:4px;}.cls-3{fill:none;stroke-width:3px;}.cls-4{stroke-miterlimit:10;}</style></defs><g id="Calque_2" data-name="Calque 2"><g id="Calque_10" data-name="Calque 10"><g id="Bras_devant" data-name="Bras devant"><circle class="cls-1" cx="59.88" cy="141.49" r="16.75"/><path class="cls-2" d="M16.67,234.49c2.75,1.38,5.25,2.46,5.25,2.46s9.61.85,5.88,12c0,0-15.86-6-21-8.37a12.56,12.56,0,0,1-.57-6.69c.54-2.44,6-8.93,10.39-9.85a17.12,17.12,0,0,1,7,.17c8.56,2.28,11.18,4.06,13.94,9.58,2.54,4.47,1.36,9.59-.54,14.75-1.73,4.7-6.08,16.12-12.14,17-5.7.84-22.09-5.38-22.84-8.91-.58-2.77,3-11.2,4.87-14.55"/><polyline class="cls-3" points="2.48 256.86 8.88 241.91 14.45 244.35 7.88 260.38"/><polyline class="cls-3" points="15.19 262.71 21.76 246.68 16.19 244.24 9.31 260.12"/><polyline class="cls-3" points="15.85 261.99 22.25 247.04 28.19 248.55 21.89 263.93"/><path class="cls-3" d="M21.82,265.12l6.12-14.35a2.94,2.94,0,0,1,4.15-.88c2.51,1.64,1.42,3.32,1.42,3.32l-5.08,10.94"/><path class="cls-3" d="M21.93,236.33s5.38,0,6.49-2.8"/><path class="cls-4" d="M15,225,44,137l.33-1a17,17,0,0,1,31.87,11.85l-.39.95L38.3,236.26"/><polyline class="cls-5" points="42.92 142.69 42.92 142.65 42.96 125.33 42.06 63.68 76.06 63.32 76.88 141.31 76.86 142.3 76.86 142.34"/><path class="cls-6" d="M80.65,24.27l.41,39-44,.46-.41-39a22,22,0,1,1,44-.46Z"/></g></g></g></svg>