<svg xmlns="http://www.w3.org/2000/svg" viewBox="0 0 117.72 161.45"><defs><style>.cls-1,.cls-3,.cls-4,.cls-7{fill:#fff;}.cls-1{stroke:red;}.cls-1,.cls-2,.cls-3,.cls-4,.cls-6,.cls-7{stroke-linejoin:round;}.cls-1,.cls-5,.cls-6,.cls-7{stroke-width:5px;}.cls-2,.cls-5,.cls-6{fill:#6d3207;}.cls-2,.cls-3,.cls-4,.cls-5,.cls-6,.cls-7{stroke:#000;}.cls-2,.cls-3,.cls-4,.cls-5,.cls-6{stroke-linecap:round;}.cls-2,.cls-4{stroke-width:4px;}.cls-3{stroke-width:3px;}.cls-5{stroke-miterlimit:10;}</style></defs><g id="Calque_2" data-name="Calque 2"><g id="Calque_10" data-name="Calque 10"><g id="Bras_devant" data-name="Bras devant"><circle class="cls-1" cx="94.04" cy="141.49" r="16.75"/><path class="cls-2" d="M41.43,56.51A30.16,30.16,0,0,1,38,44.63a12.4,12.4,0,0,1,6.08,2.84c1.85,1.68,4.74,9.66,3.37,13.92a17.31,17.31,0,0,1-3.65,6c-6.25,6.28-9.09,7.67-15.26,7.3-5.14,0-9-3.59-12.52-7.81C12.85,63,5.12,53.57,7.37,47.87c.88-2.23,2.78-4.68,6.28-7.77C12.36,38.77,3.06,29.27,3.06,29.27a3.43,3.43,0,0,1-.37-4.47c1.73-2.44,4.66.16,4.66.16L23.17,39.14l.78-.62L14.79,21.25S13,18.41,15.64,17c2.24-1.23,4.18.84,4.18.84L37.38,43.73"/><line class="cls-3" x1="9.43" y1="44.87" x2="13.51" y2="50.35"/><line class="cls-4" x1="13.69" y1="40.24" x2="17.86" y2="44.83"/><path class="cls-5" d="M48.2,58l58.45,72.72.65.78a17,17,0,1,1-26.85,20.86l-.6-.82L21.33,72.36"/><polyline class="cls-6" points="77.13 111.33 76.23 63.68 110.22 63.32 111.04 141.31 111.02 142.3 111.02 142.34"/><path class="cls-7" d="M114.82,24.27l.4,39-44,.46-.41-39a22,22,0,1,1,44-.46Z"/></g></g></g></svg>