<svg xmlns="http://www.w3.org/2000/svg" viewBox="0 0 100.49 282.11"><defs><style>.cls-1,.cls-5{fill:#fff;}.cls-1{stroke:#ff0028;}.cls-1,.cls-2,.cls-3,.cls-5{stroke-linejoin:round;}.cls-1,.cls-2,.cls-4,.cls-5{stroke-width:5px;}.cls-2,.cls-3,.cls-4{fill:#bc6226;stroke-linecap:round;}.cls-2,.cls-3,.cls-4,.cls-5{stroke:#000;}.cls-3{stroke-width:3px;}.cls-4{stroke-miterlimit:10;}</style></defs><g id="Calque_2" data-name="Calque 2"><g id="Calque_10" data-name="Calque 10"><g id="Bras_devant" data-name="Bras devant"><circle class="cls-1" cx="76.81" cy="141.49" r="16.75"/><path class="cls-2" d="M25.61,242.44h0a3.87,3.87,0,0,1-.44-.56l-8.07,5.54S10,253.66,2.5,244.66l26.87-20.2c8.86-5.24,11.76-5.57,19-2.87a14,14,0,0,1,8.19,18L45,270.52a14,14,0,0,1-26.21-9.82l6.84-18.26h0"/><line class="cls-3" x1="26.96" y1="278.96" x2="35.76" y2="255.02"/><line class="cls-3" x1="21.19" y1="274.37" x2="28.84" y2="253.55"/><line class="cls-3" x1="34.25" y1="279.24" x2="42.03" y2="258.46"/><path class="cls-4" d="M29.89,225,61,137l.32-1a17,17,0,0,1,31.87,11.85l-.38.95L56.24,240.26"/><polyline class="cls-2" points="59.85 142.69 59.85 142.65 59.89 125.33 58.99 63.68 92.99 63.32 93.81 141.31 93.79 142.3 93.79 142.34"/><path class="cls-5" d="M97.58,24.27l.41,39-44,.46-.41-39a22,22,0,1,1,44-.46Z"/></g></g></g></svg>