<svg xmlns="http://www.w3.org/2000/svg" viewBox="0 0 62.88 289.61"><defs><style>.cls-1,.cls-4,.cls-6{fill:#fff;}.cls-1{stroke:red;}.cls-1,.cls-3,.cls-4,.cls-6{stroke-linejoin:round;}.cls-1,.cls-3,.cls-5,.cls-6{stroke-width:5px;}.cls-2{fill:none;stroke-width:2px;}.cls-2,.cls-3,.cls-4,.cls-5,.cls-6{stroke:#000;}.cls-2,.cls-3,.cls-4,.cls-5{stroke-linecap:round;}.cls-2,.cls-5{stroke-miterlimit:10;}.cls-3,.cls-5{fill:#efa26f;}.cls-4{stroke-width:3px;}</style></defs><g id="Calque_2" data-name="Calque 2"><g id="Calque_10" data-name="Calque 10"><g id="Bras_devant" data-name="Bras devant"><circle class="cls-1" cx="39.2" cy="141.49" r="16.75"/><line class="cls-2" x1="35.8" y1="287.02" x2="37.02" y2="261.55"/><line class="cls-2" x1="28.92" y1="284.37" x2="29.98" y2="262.21"/><line class="cls-2" x1="42.91" y1="285.04" x2="43.97" y2="262.88"/><path class="cls-3" d="M37.63,247.4a9,9,0,0,1-13.74,5.49h0a5,5,0,0,1-.58-.41l-6,7.7s-4.93,8.1-14.76,1.75l19.6-27.31c6.88-7.66,9.54-8.85,17.26-8.43a14,14,0,0,1,13.21,14.74l-1.79,33a14,14,0,0,1-28-1.52l1.07-19.46h0"/><line class="cls-4" x1="36.03" y1="287.34" x2="37.42" y2="261.88"/><line class="cls-4" x1="29.17" y1="284.64" x2="30.37" y2="262.5"/><line class="cls-4" x1="43.15" y1="285.41" x2="44.35" y2="263.26"/><path class="cls-5" d="M22.53,234.52l-.66-93.3,0-1a17,17,0,1,1,34,.33l0,1L52.51,240"/><polyline class="cls-3" points="22.24 142.69 22.24 142.65 22.28 125.33 21.39 63.68 55.38 63.32 56.2 141.31 56.18 142.3 56.18 142.34"/><path class="cls-6" d="M60,24.27l.41,39-44,.46-.41-39a22,22,0,1,1,44-.46Z"/></g></g></g></svg>