<svg xmlns="http://www.w3.org/2000/svg" viewBox="0 0 49.41 271.66"><defs><style>.cls-1,.cls-6{fill:#fff;}.cls-1{stroke:red;}.cls-1,.cls-2,.cls-3,.cls-5,.cls-6{stroke-linejoin:round;}.cls-1,.cls-4,.cls-5,.cls-6{stroke-width:5px;}.cls-2,.cls-4,.cls-5{fill:#ffccb0;}.cls-2,.cls-3,.cls-4,.cls-5,.cls-6{stroke:#000;}.cls-2,.cls-3,.cls-4,.cls-5{stroke-linecap:round;}.cls-2{stroke-width:4px;}.cls-3{fill:none;stroke-width:3px;}.cls-4{stroke-miterlimit:10;}</style></defs><g id="Calque_2" data-name="Calque 2"><g id="Calque_10" data-name="Calque 10"><g id="Bras_devant" data-name="Bras devant"><circle class="cls-1" cx="25.73" cy="141.49" r="16.75"/><path class="cls-2" d="M15.86,241.49c3.06.32,5.78.46,5.78.46s9.3-2.58,9.7,9.12c0,0-17-.06-22.6-.47a12.6,12.6,0,0,1-2.88-6.06c-.36-2.48,2.5-10.47,6.27-12.87a17.09,17.09,0,0,1,6.64-2.3c8.81-.87,11.89-.13,16.41,4.08,4,3.29,4.64,8.5,4.67,14,0,5,0,17.23-5.4,20.19-5,2.78-22.58,2.71-24.51-.34-1.52-2.38-1.11-11.54-.55-15.32"/><polyline class="cls-3" points="10.43 267.41 11.17 251.17 17.25 251.5 16.72 268.81"/><polyline class="cls-3" points="24.38 268.43 24.91 251.11 18.83 250.78 17.96 268.07"/><polyline class="cls-3" points="24.74 267.53 25.49 251.28 31.58 250.61 31.09 267.23"/><path class="cls-3" d="M31.43,268.37l.7-15.59a2.94,2.94,0,0,1,3.58-2.28c2.92.65,2.49,2.61,2.49,2.61l-.92,12"/><path class="cls-3" d="M21.43,241.36s5-1.89,5.1-4.89"/><path class="cls-4" d="M10.06,233.52,8.4,141.22l0-1a17,17,0,0,1,17.16-16.84c9.39.09,17.43,7.78,17.34,17.17l0,1L36,235"/><polyline class="cls-5" points="8.77 142.69 8.77 142.65 8.81 125.33 7.91 63.68 41.91 63.32 42.73 141.31 42.71 142.3 42.71 142.34"/><path class="cls-6" d="M46.5,24.27l.41,39-44,.46-.41-39a22,22,0,1,1,44-.46Z"/></g></g></g></svg>