<svg xmlns="http://www.w3.org/2000/svg" viewBox="0 0 175.21 161.86"><defs><style>.cls-1,.cls-6{fill:#fff;}.cls-1{stroke:red;}.cls-1,.cls-2,.cls-3,.cls-5,.cls-6{stroke-linejoin:round;}.cls-1,.cls-4,.cls-5,.cls-6{stroke-width:5px;}.cls-2,.cls-4,.cls-5{fill:#efa26f;}.cls-2,.cls-3,.cls-4,.cls-5,.cls-6{stroke:#000;}.cls-2,.cls-3,.cls-4,.cls-5{stroke-linecap:round;}.cls-2{stroke-width:4px;}.cls-3{fill:none;stroke-width:3px;}.cls-4{stroke-miterlimit:10;}</style></defs><g id="Calque_2" data-name="Calque 2"><g id="Calque_10" data-name="Calque 10"><g id="Bras_devant" data-name="Bras devant"><circle class="cls-1" cx="151.52" cy="141.49" r="16.75"/><path class="cls-2" d="M39,126.76,7.85,123.39S5,123.54,4.5,126c-.61,2.94,2.71,3.4,2.71,3.4l19.09,4.19,0,1-21,2.89s-3.88.55-3.14,3.46a3.42,3.42,0,0,0,3.65,2.6l15.32-1.08,1,5.83,19.14-5.06.34-16.57Z"/><path class="cls-2" d="M49.11,134.08c-.37,3.06-.54,5.77-.54,5.77s2.45,9.33-9.25,9.59c0,0,.28-17,.76-22.6a12.62,12.62,0,0,1,6.1-2.8c2.48-.32,10.44,2.64,12.79,6.44a17.13,17.13,0,0,1,2.22,6.66c.75,8.83,0,11.89-4.3,16.36-3.34,3.91-8.56,4.54-14,4.49-5,0-17.24-.26-20.13-5.66-1-1.9-1.64-4.56-1.82-8.49"/><polyline class="cls-3" points="20.95 142.57 39.19 143.58 39.78 149.68 23.17 148.97"/><path class="cls-3" d="M22,149.3l15.57.9a2.94,2.94,0,0,1,2.23,3.61c-.69,2.92-2.63,2.46-2.63,2.46l-12-1.08"/><path class="cls-3" d="M49.16,139.65S51,144.72,54,144.82"/><path class="cls-4" d="M58,130.09l92.28-4.7,1,0a17,17,0,0,1,.06,34l-1,0-94.45-5.21"/><polyline class="cls-5" points="134.57 142.69 134.57 142.65 134.61 125.33 133.71 63.68 167.71 63.32 168.52 141.31 168.5 142.3 168.5 142.34"/><path class="cls-6" d="M172.3,24.27l.41,39-44,.46-.41-39a22,22,0,0,1,44-.46Z"/></g></g></g></svg>