<svg xmlns="http://www.w3.org/2000/svg" viewBox="0 0 157.95 224.13"><defs><style>.cls-1,.cls-6{fill:#fff;}.cls-1{stroke:red;}.cls-1,.cls-2,.cls-3,.cls-5,.cls-6{stroke-linejoin:round;}.cls-1,.cls-4,.cls-5,.cls-6{stroke-width:5px;}.cls-2,.cls-4,.cls-5{fill:#ffccb0;}.cls-2,.cls-3,.cls-4,.cls-5,.cls-6{stroke:#000;}.cls-2,.cls-3,.cls-4,.cls-5{stroke-linecap:round;}.cls-2{stroke-width:4px;}.cls-3{fill:none;stroke-width:3px;}.cls-4{stroke-miterlimit:10;}</style></defs><g id="Calque_2" data-name="Calque 2"><g id="Calque_10" data-name="Calque 10"><g id="Bras_devant" data-name="Bras devant"><circle class="cls-1" cx="134.27" cy="141.49" r="16.75"/><path class="cls-2" d="M30.7,188.22,3.46,203.64s-2.22,1.77-1.18,4.1c1.22,2.74,4.18,1.19,4.18,1.19l18-7.73L25,202,9.56,216.64s-2.82,2.71-.52,4.64a3.42,3.42,0,0,0,4.48,0l11.81-9.82,4.18,4.17,12.6-15.26-9.39-13.67Z"/><path class="cls-2" d="M43.2,188.26c1.49,2.69,2.93,5,2.93,5s7.43,6.14-1.92,13.18c0,0-9.67-13.95-12.56-18.8A12.54,12.54,0,0,1,35,181.81c1.82-1.71,10-3.95,14.14-2.23a17.14,17.14,0,0,1,5.69,4.12c5.76,6.73,6.91,9.67,6.05,15.79-.44,5.13-4.31,8.68-8.8,11.85-4.09,2.89-14.15,9.83-19.64,7.13-1.94-.95-4-2.74-6.44-5.83"/><polyline class="cls-3" points="25.28 211.57 40.68 201.76 44.72 206.37 30.82 215.48"/><path class="cls-3" d="M30.08,216.42l13.18-8.36a2.92,2.92,0,0,1,3.91,1.63c1.14,2.77-.7,3.53-.7,3.53l-10.39,6.14"/><path class="cls-3" d="M46.49,192.75s4.44,3.05,6.94,1.38"/><path class="cls-4" d="M48.31,180l76.32-51.69.85-.56a17,17,0,1,1,18,28.84l-.88.52L59.83,201.22"/><polyline class="cls-5" points="117.31 142.69 117.31 142.65 117.35 125.33 116.45 63.68 150.45 63.32 151.27 141.31 151.25 142.3 151.25 142.34"/><path class="cls-6" d="M155,24.27l.41,39-44,.46-.41-39a22,22,0,0,1,44-.46Z"/></g></g></g></svg>