<svg xmlns="http://www.w3.org/2000/svg" viewBox="0 0 172.36 161.86"><defs><style>.cls-1,.cls-6{fill:#fff;}.cls-1{stroke:red;}.cls-1,.cls-2,.cls-3,.cls-5,.cls-6{stroke-linejoin:round;}.cls-1,.cls-4,.cls-5,.cls-6{stroke-width:5px;}.cls-2,.cls-4,.cls-5{fill:#6d3207;}.cls-2,.cls-3,.cls-4,.cls-5,.cls-6{stroke:#000;}.cls-2,.cls-3,.cls-4,.cls-5{stroke-linecap:round;}.cls-2{stroke-width:4px;}.cls-3{fill:none;stroke-width:3px;}.cls-4{stroke-miterlimit:10;}</style></defs><g id="Calque_2" data-name="Calque 2"><g id="Calque_10" data-name="Calque 10"><g id="Bras_devant" data-name="Bras devant"><circle class="cls-1" cx="148.68" cy="141.49" r="16.75"/><path class="cls-2" d="M34.76,128.06,4.52,126.65a2.93,2.93,0,0,0-2.46,3.45c.49,3,2.47,2.63,2.47,2.63l31.29,1.68"/><path class="cls-2" d="M46.27,134.31c-.35,3.06-.5,5.78-.5,5.78s2.52,9.31-9.18,9.64c0,0,.17-17,.61-22.6a12.63,12.63,0,0,1,6.08-2.84c2.48-.34,10.45,2.57,12.83,6.36a17.11,17.11,0,0,1,2.26,6.65c.81,8.82.05,11.89-4.19,16.38-3.32,3.93-8.53,4.59-14,4.59-5,0-17.24-.16-20.16-5.54-1.57-2.88-2.18-9.81-1.86-15.59"/><polyline class="cls-3" points="19.27 142.65 36.59 143.29 36.95 137.22 19.68 136.24"/><polyline class="cls-3" points="20.17 143.03 36.41 143.88 37.05 149.97 20.43 149.37"/><path class="cls-3" d="M19.29,149.71l15.58.79a2.94,2.94,0,0,1,2.26,3.6c-.68,2.92-2.63,2.47-2.63,2.47l-12-1"/><path class="cls-3" d="M46.36,139.88s1.86,5.06,4.86,5.14"/><path class="cls-4" d="M55.13,130.09l92.28-4.7,1,0a17,17,0,0,1,.06,34l-1,0L53,154.12"/><polyline class="cls-5" points="131.72 142.69 131.72 142.65 131.76 125.33 130.86 63.68 164.86 63.32 165.68 141.31 165.66 142.3 165.66 142.34"/><path class="cls-6" d="M169.45,24.27l.41,39-44,.46-.41-39a22,22,0,0,1,44-.46Z"/></g></g></g></svg>