<svg xmlns="http://www.w3.org/2000/svg" viewBox="0 0 141.27 221.24"><defs><style>.cls-1,.cls-6{fill:#fff;}.cls-1{stroke:red;}.cls-1,.cls-2,.cls-3,.cls-5,.cls-6{stroke-linejoin:round;}.cls-1,.cls-4,.cls-5,.cls-6{stroke-width:5px;}.cls-2,.cls-4,.cls-5{fill:#ffccb0;}.cls-2,.cls-3,.cls-4,.cls-5,.cls-6{stroke:#000;}.cls-2,.cls-3,.cls-4,.cls-5{stroke-linecap:round;}.cls-2{stroke-width:4px;}.cls-3{fill:none;stroke-width:3px;}.cls-4{stroke-miterlimit:10;}</style></defs><g id="Calque_2" data-name="Calque 2"><g id="Calque_10" data-name="Calque 10"><g id="Bras_devant" data-name="Bras devant"><circle class="cls-1" cx="117.59" cy="141.49" r="16.75"/><path class="cls-2" d="M26.7,188.42c1.48,2.69,2.92,5,2.92,5s7.43,6.15-1.93,13.18c0,0-9.65-13.95-12.55-18.81A12.7,12.7,0,0,1,18.47,182c1.83-1.71,10-3.94,14.15-2.22a17.15,17.15,0,0,1,5.68,4.13c5.76,6.73,6.9,9.68,6,15.8-.44,5.12-4.32,8.67-8.81,11.84-4.09,2.88-14.16,9.82-19.65,7.11-5.17-2.54-15.14-17-13.75-20.3,1.09-2.61,8.84-7.5,12.26-9.21"/><polyline class="cls-3" points="2.32 198.79 16.07 190.11 19.28 195.28 4.77 204.75"/><polyline class="cls-3" points="9.47 210.81 23.98 201.34 20.77 196.17 6.1 205.34"/><polyline class="cls-3" points="10.42 210.6 24.17 201.92 28.21 206.53 14.29 215.63"/><path class="cls-3" d="M13.55,216.56l13.19-8.34a2.93,2.93,0,0,1,3.91,1.63c1.14,2.78-.71,3.54-.71,3.54l-10.39,6.12"/><path class="cls-3" d="M30,192.92s4.44,3.05,6.94,1.38"/><path class="cls-4" d="M31.63,180,108,128.33l.85-.56a17,17,0,1,1,18,28.84l-.89.52L43.15,201.22"/><polyline class="cls-5" points="100.63 142.69 100.63 142.65 100.67 125.33 99.78 63.68 133.77 63.32 134.59 141.31 134.57 142.3 134.57 142.34"/><path class="cls-6" d="M138.36,24.27l.41,39-44,.46-.41-39a22,22,0,1,1,44-.46Z"/></g></g></g></svg>