<svg xmlns="http://www.w3.org/2000/svg" viewBox="0 0 158.61 223.05"><defs><style>.cls-1,.cls-3,.cls-4,.cls-7{fill:#fff;}.cls-1{stroke:red;}.cls-1,.cls-2,.cls-3,.cls-4,.cls-6,.cls-7{stroke-linejoin:round;}.cls-1,.cls-5,.cls-6,.cls-7{stroke-width:5px;}.cls-2,.cls-5,.cls-6{fill:#6d3207;}.cls-2,.cls-3,.cls-4,.cls-5,.cls-6,.cls-7{stroke:#000;}.cls-2,.cls-3,.cls-4,.cls-5,.cls-6{stroke-linecap:round;}.cls-2,.cls-4{stroke-width:4px;}.cls-3{stroke-width:3px;}.cls-5{stroke-miterlimit:10;}</style></defs><g id="Calque_2" data-name="Calque 2"><g id="Calque_10" data-name="Calque 10"><g id="Bras_devant" data-name="Bras devant"><circle class="cls-1" cx="134.93" cy="141.49" r="16.75"/><path class="cls-2" d="M44.65,185.58a30.24,30.24,0,0,1-12.21,1.89A12.52,12.52,0,0,1,36,181.79c1.9-1.63,10.18-3.51,14.23-1.61a17.15,17.15,0,0,1,5.5,4.36c5.47,7,6.48,10,5.36,16.05-.66,5.1-4.68,8.48-9.3,11.45-4.22,2.71-14.57,9.21-19.94,6.27-2.11-1.15-4.31-3.34-6.94-7.19l-12.06,9.16a3.42,3.42,0,0,1-4.47-.18c-2.21-2,.73-4.61.73-4.61l16-13.94-.52-.85L6.36,207.64s-3,1.43-4.14-1.36c-.93-2.38,1.36-4.05,1.36-4.05L31.47,188"/><line class="cls-3" x1="29.13" y1="215.89" x2="35.08" y2="212.52"/><line class="cls-4" x1="25.06" y1="211.09" x2="30.14" y2="207.53"/><path class="cls-5" d="M47,179l78.33-50.69.85-.56a17,17,0,1,1,18,28.84l-.88.52L58.49,207.22"/><polyline class="cls-6" points="117.97 142.69 117.97 142.65 118.01 125.33 117.11 63.68 151.11 63.32 151.93 141.31 151.91 142.3 151.91 142.34"/><path class="cls-7" d="M155.7,24.27l.41,39-44,.46-.41-39a22,22,0,0,1,44-.46Z"/></g></g></g></svg>