<svg xmlns="http://www.w3.org/2000/svg" viewBox="0 0 183.19 263"><defs><style>.cls-1,.cls-3{fill:none;}.cls-1{stroke:red;}.cls-1,.cls-2,.cls-3{stroke-linejoin:round;stroke-width:5px;}.cls-2{fill:#fff;}.cls-2,.cls-3{stroke:#000;}.cls-3{stroke-linecap:round;}</style></defs><g id="Calque_2" data-name="Calque 2"><g id="Calque_12" data-name="Calque 12"><circle id="Articulation_bras_derrière" data-name="Articulation bras derrière" class="cls-1" cx="34.69" cy="53.5" r="22"/><circle id="Articulation_jambe_derrière" data-name="Articulation jambe derrière" class="cls-1" cx="57.69" cy="220.5" r="40"/><circle id="Articulation_jambe_devant" data-name="Articulation jambe devant" class="cls-1" cx="126.69" cy="220.5" r="40"/><circle id="Articulation_tête" data-name="Articulation tête" class="cls-1" cx="92.19" cy="23.5" r="21"/><circle id="Articulation_bras_devant" data-name="Articulation bras devant" class="cls-1" cx="150.69" cy="53.5" r="22"/><g id="Torse"><path class="cls-2" d="M180.69,224.25s-143.86.09-178,0c-2.91,0,29.09-89,15.09-99C-22.17,96.71,40.3,33,71.21,24.13a21,21,0,0,0,42,.29c30.4,9.19,55.82,55.64,59.62,88.82C176.78,148.24,180.69,224.25,180.69,224.25Z"/></g><path class="cls-3" d="M95.52,122.47c2.26,2.77,18.2,16.79,36.07,1.07"/><path class="cls-3" d="M14.52,122.47c2.26,2.77,18.2,16.79,36.07,1.07"/></g></g></svg>