<svg xmlns="http://www.w3.org/2000/svg" viewBox="0 0 49.41 287.84"><defs><style>.cls-1,.cls-6{fill:#fff;}.cls-1{stroke:red;}.cls-1,.cls-2,.cls-3,.cls-5,.cls-6{stroke-linejoin:round;}.cls-1,.cls-4,.cls-5,.cls-6{stroke-width:5px;}.cls-2,.cls-4,.cls-5{fill:#bc6226;}.cls-2,.cls-3,.cls-4,.cls-5,.cls-6{stroke:#000;}.cls-2,.cls-3,.cls-4,.cls-5{stroke-linecap:round;}.cls-2{stroke-width:4px;}.cls-3{fill:none;stroke-width:3px;}.cls-4{stroke-miterlimit:10;}</style></defs><g id="Calque_2" data-name="Calque 2"><g id="Calque_10" data-name="Calque 10"><g id="Bras_devant" data-name="Bras devant"><circle class="cls-1" cx="25.73" cy="141.49" r="16.75"/><path class="cls-2" d="M9.27,253.09,7.86,283.32a3,3,0,0,0,3.46,2.47c3-.5,2.63-2.47,2.63-2.47L15.63,252"/><path class="cls-2" d="M15.53,241.57c3.06.35,5.78.51,5.78.51s9.31-2.52,9.64,9.18c0,0-17-.17-22.6-.62a12.54,12.54,0,0,1-2.84-6.08c-.34-2.48,2.56-10.45,6.35-12.83a17.11,17.11,0,0,1,6.65-2.26c8.82-.81,11.89,0,16.39,4.19,3.93,3.32,4.59,8.53,4.58,14,0,5-.15,17.23-5.53,20.16-2.88,1.56-9.81,2.18-15.6,1.85"/><polyline class="cls-3" points="23.87 268.57 24.51 251.26 18.44 250.89 17.46 268.17"/><polyline class="cls-3" points="24.24 267.67 25.09 251.43 31.19 250.8 30.59 267.41"/><path class="cls-3" d="M30.92,268.55l.8-15.58a2.93,2.93,0,0,1,3.59-2.25c2.93.67,2.48,2.62,2.48,2.62l-1,12"/><path class="cls-3" d="M21.1,241.49s5-1.87,5.13-4.87"/><path class="cls-4" d="M10.06,233.52,8.4,141.22l0-1a17,17,0,0,1,17.16-16.84c9.39.09,17.43,7.78,17.34,17.17l0,1L36,235"/><polyline class="cls-5" points="8.77 142.69 8.77 142.65 8.81 125.33 7.91 63.68 41.91 63.32 42.73 141.31 42.71 142.3 42.71 142.34"/><path class="cls-6" d="M46.5,24.27l.41,39-44,.46-.41-39a22,22,0,1,1,44-.46Z"/></g></g></g></svg>