<svg xmlns="http://www.w3.org/2000/svg" viewBox="0 0 94.62 151.76"><defs><style>.cls-1{fill:#4f2102;}.cls-1,.cls-2{stroke:#000;stroke-linecap:round;stroke-linejoin:round;stroke-width:5px;}.cls-2{fill:#efa26f;}</style></defs><g id="Calque_2" data-name="Calque 2"><g id="Calque_9" data-name="Calque 9"><path class="cls-1" d="M2.62,48.26V142h87v-84A64.41,64.41,0,0,0,80.86,25.1C74,13.57,62.32,2.13,42.75,2.51,3.62,3.26,2.62,48.26,2.62,48.26Z"/><g id="Tête"><path class="cls-2" d="M81.87,60.1a8.94,8.94,0,0,0-4.73,2.19"/><path class="cls-2" d="M82.1,78a9,9,0,0,1-4.43-1.79"/><path class="cls-2" d="M92.12,69a9,9,0,0,1-9,9,8.47,8.47,0,0,1-1-.06c0,1,0,1.73,0,2.06,0,2.1-.5,40.25-.5,40.25v8c0,.31,0,.62,0,.92a21,21,0,0,1-41.95-.29c0-.21,0-.42,0-.63V117.74A38,38,0,0,1,6.12,80s-.5-37.4-.5-39.5a38,38,0,0,1,76,0c0,1.06.13,10.29.25,19.59A8.66,8.66,0,0,1,83.12,60,9,9,0,0,1,92.12,69Z"/><path class="cls-2" d="M82.1,78a9,9,0,0,1-4.43-1.79"/><path class="cls-2" d="M81.87,60.1a8.94,8.94,0,0,0-4.73,2.19"/><path class="cls-2" d="M39.62,117.74a37.12,37.12,0,0,0,4.5.27,37.78,37.78,0,0,0,19.5-5.39"/></g><path class="cls-1" d="M36.62,3.26s-3.24,44.06-34.12,59V46.36S5.62,3.26,36.62,3.26Z"/><path class="cls-1" d="M88.62,60.26c-5-2-9,2.1-12,2-17.67-.6-38.17-25.38-39-59,0,0,40-6.8,51,43.1C88.62,46.36,89.94,60.79,88.62,60.26Z"/></g></g></svg>