<svg xmlns="http://www.w3.org/2000/svg" viewBox="0 0 94.61 151.73"><defs><style>.cls-1{fill:#230e00;}.cls-1,.cls-2{stroke:#000;stroke-linecap:round;stroke-linejoin:round;stroke-width:5px;}.cls-2{fill:#bc6226;}</style></defs><g id="Calque_2" data-name="Calque 2"><g id="Calque_9" data-name="Calque 9"><path class="cls-1" d="M2.62,48.26V142h87v-84A64.41,64.41,0,0,0,80.86,25.1C74,13.57,62.32,2.13,42.75,2.51,3.62,3.26,2.62,48.26,2.62,48.26Z"/><g id="Tête"><path class="cls-2" d="M81.83,60a8.92,8.92,0,0,0-4.72,2.2"/><path class="cls-2" d="M82.11,77.87a9,9,0,0,1-4.44-1.78"/><path class="cls-2" d="M92.11,68.91a9,9,0,0,1-9,9,8.47,8.47,0,0,1-1-.06c0,1,0,1.73,0,2.06,0,2.1-.4,40.25-.4,40.25l0,8c0,.31,0,.62,0,.92a21,21,0,0,1-41.95-.19c0-.21,0-.42,0-.63l0-10.52A38,38,0,0,1,6.13,80.11s-.59-37.39-.59-39.49a38,38,0,1,1,76-.19c0,1.06.15,10.29.29,19.59a8.66,8.66,0,0,1,1.25-.09A9,9,0,0,1,92.11,68.91Z"/><path class="cls-2" d="M82.11,77.87a9,9,0,0,1-4.44-1.78"/><path class="cls-2" d="M81.83,60a8.92,8.92,0,0,0-4.72,2.2"/><path class="cls-2" d="M39.72,117.76a35.2,35.2,0,0,0,4.5.26,37.76,37.76,0,0,0,19.49-5.44"/></g><path class="cls-1" d="M36.62,3.26s-3.24,44.06-34.12,59V46.36S5.62,3.26,36.62,3.26Z"/><path class="cls-1" d="M88.62,60.26c-5-2-9,2.1-12,2-17.67-.6-38.17-25.38-39-59,0,0,40-6.8,51,43.1C88.62,46.36,89.94,60.79,88.62,60.26Z"/></g></g></svg>