<svg xmlns="http://www.w3.org/2000/svg" viewBox="0 0 114 158.04"><defs><style>.cls-1{fill:#231a14;}.cls-1,.cls-2{stroke:#000;stroke-linecap:round;stroke-linejoin:round;stroke-width:5px;}.cls-2{fill:#ffd9b3;}</style></defs><g id="Calque_2" data-name="Calque 2"><g id="Calque_9" data-name="Calque 9"><path class="cls-1" d="M33.42,111.39v24.44s.08,9.71-2.92,12.71a12,12,0,0,0,9.59-5.5s.41,9.5-1.59,10.5c0,0,13-1.11,16-13.55V111.34Z"/><g id="Tête"><path class="cls-2" d="M95.75,66.38A8.94,8.94,0,0,0,91,68.57"/><path class="cls-2" d="M96,84.23a9,9,0,0,1-4.43-1.79"/><path class="cls-2" d="M106,75.29a9,9,0,0,1-9,9,8.47,8.47,0,0,1-1-.06c0,1,0,1.73,0,2.06,0,2.1-.5,40.25-.5,40.25v8c0,.31,0,.62,0,.92a21,21,0,0,1-41.95-.29c0-.21,0-.42,0-.63V124A38,38,0,0,1,20,86.29s-.5-37.4-.5-39.5a38,38,0,0,1,76,0c0,1.06.13,10.29.25,19.59A8.66,8.66,0,0,1,97,66.29,9,9,0,0,1,106,75.29Z"/><path class="cls-2" d="M96,84.23a9,9,0,0,1-4.43-1.79"/><path class="cls-2" d="M95.75,66.38A8.94,8.94,0,0,0,91,68.57"/><path class="cls-2" d="M53.5,124a37.12,37.12,0,0,0,4.5.27,37.78,37.78,0,0,0,19.5-5.39"/></g><path class="cls-1" d="M101.5,84.54v56s-1,8,4,11c0,0-11.9.89-12-11.55,0-11,0-48,0-56.45C93.5,83.54,96.28,85.73,101.5,84.54Z"/><path class="cls-1" d="M100,64.48V37.75c4.48,2.21,11.52.19,11.52.19C104.5,36.34,98,28.3,98,28.3a10.62,10.62,0,0,0,10.52-5.76c-8,1-17-6-17-6-20-25-41-9-41-9S35-2.9,18.5,11.54c-8,7-16,7-16,7s8,5,16,2c0,0-7,13-14,12,0,0,7,4,11,3l-.35,33s-.65,12,7.35,14v-35s25.66-11.82,28-38c0,0,8,33,30,42,0,0,5,24.59-2,31.8,0,0,13,4.2,12-29.8v15A23,23,0,0,1,100,64.48Z"/></g></g></svg>