<svg xmlns="http://www.w3.org/2000/svg" viewBox="0 0 86.5 146.75"><defs><style>.cls-1,.cls-2{fill:none;}.cls-2{stroke:#000;stroke-linecap:round;stroke-linejoin:round;stroke-width:5px;}</style></defs><g id="Calque_2" data-name="Calque 2"><g id="Visages"><g id="Tête"><path class="cls-1" d="M76.25,57.59a8.94,8.94,0,0,0-4.73,2.19"/><path class="cls-1" d="M76.48,75.44a9,9,0,0,1-4.43-1.79"/><path class="cls-1" d="M86.5,66.5a9,9,0,0,1-9,9,8.47,8.47,0,0,1-1-.06c0,1,0,1.73,0,2.06,0,2.1-.5,40.25-.5,40.25v8c0,.31,0,.62,0,.92A21,21,0,0,1,34,126.38c0-.21,0-.42,0-.63V115.23A38,38,0,0,1,.5,77.5S0,40.1,0,38a38,38,0,0,1,76,0c0,1.06.13,10.29.25,19.59a8.66,8.66,0,0,1,1.25-.09A9,9,0,0,1,86.5,66.5Z"/><path class="cls-1" d="M76.48,75.44a9,9,0,0,1-4.43-1.79"/><path class="cls-1" d="M76.25,57.59a8.94,8.94,0,0,0-4.73,2.19"/><path class="cls-1" d="M34,115.23a37.12,37.12,0,0,0,4.5.27A37.78,37.78,0,0,0,58,110.11"/></g><circle class="cls-2" cx="14" cy="59.75" r="2"/><path class="cls-2" d="M43.25,58.69s6.18-3.94,11.8,0"/></g></g></svg>