<svg xmlns="http://www.w3.org/2000/svg" viewBox="0 0 113.17 161.45"><defs><style>.cls-1,.cls-6{fill:#fff;}.cls-1{stroke:red;}.cls-1,.cls-2,.cls-3,.cls-5,.cls-6{stroke-linejoin:round;}.cls-1,.cls-4,.cls-5,.cls-6{stroke-width:5px;}.cls-2,.cls-4,.cls-5{fill:#efa26f;}.cls-2,.cls-3,.cls-4,.cls-5,.cls-6{stroke:#000;}.cls-2,.cls-3,.cls-4,.cls-5{stroke-linecap:round;}.cls-2{stroke-width:4px;}.cls-3{fill:none;stroke-width:3px;}.cls-4{stroke-miterlimit:10;}</style></defs><g id="Calque_2" data-name="Calque 2"><g id="Calque_10" data-name="Calque 10"><g id="Bras_devant" data-name="Bras devant"><circle class="cls-1" cx="89.49" cy="141.49" r="16.75"/><path class="cls-2" d="M33.22,55.12c-2.6,1.63-4.83,3.2-4.83,3.2s-5.73,7.76-13.26-1.2c0,0,13.39-10.41,18.08-13.57a12.53,12.53,0,0,1,6,3c1.81,1.73,4.49,9.78,3,14a17.11,17.11,0,0,1-3.81,5.9C32,72.57,29.13,73.88,23,73.36c-5.14-.16-8.9-3.83-12.31-8.14C7.55,61.3.07,51.63,2.46,46,4.72,40.69,18.57,29.94,22,31.14c2.67,1,8,8.41,9.88,11.73"/><polyline class="cls-3" points="21.52 31.36 30.95 44.61 25.96 48.1 15.7 34.14"/><polyline class="cls-3" points="9.91 39.16 20.17 53.12 25.16 49.63 15.18 35.49"/><polyline class="cls-3" points="10.18 40.1 19.61 53.35 15.22 57.63 5.37 44.25"/><path class="cls-3" d="M4.39,43.56l9.07,12.7a2.94,2.94,0,0,1-1.42,4c-2.7,1.29-3.56-.51-3.56-.51l-6.7-10"/><path class="cls-3" d="M28.92,58.65s-2.8,4.6-1,7"/><path class="cls-4" d="M41.64,60l60.46,70.72.64.78a17,17,0,1,1-26.85,20.86l-.6-.82L20.77,72.36"/><polyline class="cls-5" points="72.57 111.33 71.67 63.68 105.67 63.32 106.48 141.31 106.47 142.3 106.47 142.34"/><path class="cls-6" d="M110.26,24.27l.41,39-44,.46-.41-39a22,22,0,0,1,44-.46Z"/></g></g></g></svg>