<svg xmlns="http://www.w3.org/2000/svg" viewBox="0 0 113.91 161.45"><defs><style>.cls-1,.cls-5{fill:#fff;}.cls-1{stroke:red;}.cls-1,.cls-2,.cls-3,.cls-5{stroke-linejoin:round;}.cls-1,.cls-2,.cls-4,.cls-5{stroke-width:5px;}.cls-2,.cls-4{fill:#efa26f;}.cls-2,.cls-3,.cls-4,.cls-5{stroke:#000;}.cls-2,.cls-3,.cls-4{stroke-linecap:round;}.cls-3{fill:none;stroke-width:3px;}.cls-4{stroke-miterlimit:10;}</style></defs><g id="Calque_2" data-name="Calque 2"><g id="Calque_10" data-name="Calque 10"><g id="Bras_devant" data-name="Bras devant"><circle class="cls-1" cx="90.23" cy="141.49" r="16.75"/><path class="cls-2" d="M39.47,49.23c2.31-.81,6.61-7.22,6.61-7.22s5.54-7.7,14.85-.62L39.32,67.14c-6.82,6.5-9.69,7.88-16,7.3-5.14-.19-8.87-3.89-12.25-8.22C8,62.28.55,52.56,3,46.94,5.27,41.66,19.19,31,22.58,32.22c2.66,1,8.32,10.65,10.2,14C33.68,47.81,35.63,50.6,39.47,49.23Z"/><path class="cls-3" d="M22.13,32.43l9.94,14.11a2.94,2.94,0,0,1-1.44,4c-2.72,1.28-3.57-.53-3.57-.53L16.29,35.17"/><path class="cls-3" d="M11.66,41.76l10.17,14s.85,1.81,3.57.54a2.94,2.94,0,0,0,1.44-4L15.76,36.52"/><path class="cls-3" d="M10.73,41.09l9.94,14.12a2.93,2.93,0,0,1-1.44,4c-2.72,1.27-3.57-.54-3.57-.54L5.9,45.21"/><path class="cls-3" d="M4.93,44.52l9,12.76a2.94,2.94,0,0,1-1.44,4c-2.72,1.27-3.57-.54-3.57-.54L2.27,50.65"/><path class="cls-3" d="M31.33,58.2s-4.22,2.85-4.42,7.59"/><path class="cls-4" d="M44.39,58l58.45,72.72.65.78a17,17,0,1,1-26.85,20.86l-.6-.82L17.52,72.36"/><polyline class="cls-2" points="73.31 111.33 72.42 63.68 106.42 63.32 107.23 141.31 107.21 142.3 107.21 142.34"/><path class="cls-5" d="M111,24.27l.4,39-44,.46-.41-39a22,22,0,0,1,44-.46Z"/></g></g></g></svg>