<svg xmlns="http://www.w3.org/2000/svg" viewBox="0 0 89.85 277.18"><defs><style>.cls-1,.cls-6{fill:#fff;}.cls-1{stroke:red;}.cls-1,.cls-2,.cls-3,.cls-5,.cls-6{stroke-linejoin:round;}.cls-1,.cls-4,.cls-5,.cls-6{stroke-width:5px;}.cls-2,.cls-4,.cls-5{fill:#bc6226;}.cls-2,.cls-3,.cls-4,.cls-5,.cls-6{stroke:#000;}.cls-2,.cls-3,.cls-4,.cls-5{stroke-linecap:round;}.cls-2{stroke-width:4px;}.cls-3{fill:none;stroke-width:3px;}.cls-4{stroke-miterlimit:10;}</style></defs><g id="Calque_2" data-name="Calque 2"><g id="Calque_10" data-name="Calque 10"><g id="Bras_devant" data-name="Bras devant"><circle class="cls-1" cx="66.17" cy="141.49" r="16.75"/><path class="cls-2" d="M13.15,243.5,2,271.66a2.94,2.94,0,0,0,2.47,3.45c3,.48,3.29-1.49,3.29-1.49l11.72-29.07"/><path class="cls-2" d="M22.79,234.63c2.78,1.32,5.3,2.35,5.3,2.35s9.63.63,6.16,11.81c0,0-16-5.66-21.19-7.9a12.53,12.53,0,0,1-.72-6.67c.48-2.46,5.81-9.06,10.16-10.09a17.27,17.27,0,0,1,7,0c8.61,2.08,11.26,3.8,14.14,9.27,2.65,4.41,1.59,9.55-.19,14.75-1.63,4.74-5.73,16.25-11.76,17.28-3.23.55-10-1.11-15.36-3.29"/><polyline class="cls-3" points="21.95 262.88 28.16 246.7 22.53 244.39 16.01 260.42"/><polyline class="cls-3" points="22.59 262.15 28.65 247.05 34.63 248.43 28.68 263.95"/><path class="cls-3" d="M28.63,265.14l5.79-14.48a2.94,2.94,0,0,1,4.13-1c2.55,1.58,1.5,3.28,1.5,3.28l-4.83,11"/><path class="cls-3" d="M28.09,236.35s5.38-.13,6.43-2.94"/><path class="cls-4" d="M21.26,225l29.06-88,.33-1a17,17,0,1,1,31.86,11.85l-.38.95L44.6,236.26"/><polyline class="cls-5" points="49.22 142.69 49.22 142.65 49.26 125.33 48.36 63.68 82.36 63.32 83.17 141.31 83.15 142.3 83.15 142.34"/><path class="cls-6" d="M87,24.27l.4,39-44,.46-.41-39a22,22,0,0,1,44-.46Z"/></g></g></g></svg>