<svg xmlns="http://www.w3.org/2000/svg" viewBox="0 0 121.63 161.45"><defs><style>.cls-1,.cls-5{fill:#fff;}.cls-1{stroke:red;}.cls-1,.cls-2,.cls-3,.cls-5{stroke-linejoin:round;}.cls-1,.cls-2,.cls-4,.cls-5{stroke-width:5px;}.cls-2,.cls-3,.cls-4{fill:#ffccb0;stroke-linecap:round;}.cls-2,.cls-3,.cls-4,.cls-5{stroke:#000;}.cls-3{stroke-width:3px;}.cls-4{stroke-miterlimit:10;}</style></defs><g id="Calque_2" data-name="Calque 2"><g id="Calque_10" data-name="Calque 10"><g id="Bras_devant" data-name="Bras devant"><circle class="cls-1" cx="97.95" cy="141.49" r="16.75"/><path class="cls-2" d="M39.5,45.17h0a5.88,5.88,0,0,1,.71-.07l-.46-9.78s-1.56-9.35,10-11l3,33.48c-.2,10.29-1.44,12.93-7.56,17.66A14,14,0,0,1,25.61,73L5.43,46.86A14,14,0,0,1,27.58,29.74L39.5,45.17h0"/><line class="cls-3" x1="7.74" y1="27.1" x2="23.46" y2="47.17"/><line class="cls-3" x1="14.68" y1="24.61" x2="28.36" y2="42.07"/><line class="cls-3" x1="3.67" y1="33.14" x2="17.23" y2="50.69"/><path class="cls-4" d="M52.11,58l58.45,72.72.65.78a17,17,0,1,1-26.85,20.86l-.61-.82L25.23,72.36"/><polyline class="cls-2" points="81.03 111.33 80.13 63.68 114.13 63.32 114.95 141.31 114.93 142.3 114.93 142.34"/><path class="cls-5" d="M118.72,24.27l.41,39-44,.46-.41-39a22,22,0,0,1,44-.46Z"/></g></g></g></svg>