<svg xmlns="http://www.w3.org/2000/svg" viewBox="0 0 91.52 151.75"><defs><style>.cls-1{fill:#efa26f;}.cls-1,.cls-2{stroke:#000;stroke-linecap:round;stroke-linejoin:round;stroke-width:5px;}.cls-2{fill:#4f2102;}</style></defs><g id="Calque_2" data-name="Calque 2"><g id="Calque_9" data-name="Calque 9"><g id="Tête"><path class="cls-1" d="M78.77,60.09A8.94,8.94,0,0,0,74,62.28"/><path class="cls-1" d="M79,77.94a9,9,0,0,1-4.43-1.79"/><path class="cls-1" d="M89,69a9,9,0,0,1-9,9,8.47,8.47,0,0,1-1-.06c0,1,0,1.73,0,2.06,0,2.1-.5,40.25-.5,40.25v8c0,.31,0,.62,0,.92a21,21,0,0,1-41.95-.29c0-.21,0-.42,0-.63V117.73A38,38,0,0,1,3,80s-.5-37.4-.5-39.5a38,38,0,0,1,76,0c0,1.06.13,10.29.25,19.59A8.66,8.66,0,0,1,80,60,9,9,0,0,1,89,69Z"/><path class="cls-1" d="M79,77.94a9,9,0,0,1-4.43-1.79"/><path class="cls-1" d="M78.77,60.09A8.94,8.94,0,0,0,74,62.28"/><path class="cls-1" d="M36.52,117.73A37.12,37.12,0,0,0,41,118a37.78,37.78,0,0,0,19.5-5.39"/></g><path class="cls-2" d="M78.52,58.25l.25-14.54s1.75-41-38.25-41.21S2.52,42,2.52,42l0,14.25s25-12.83,33-49c0,0,10,44,39,55Z"/></g></g></svg>