<svg xmlns="http://www.w3.org/2000/svg" viewBox="0 0 66.85 273.39"><defs><style>.cls-1,.cls-5{fill:#fff;}.cls-1{stroke:red;}.cls-1,.cls-2,.cls-3,.cls-5{stroke-linejoin:round;}.cls-1,.cls-2,.cls-4,.cls-5{stroke-width:5px;}.cls-2,.cls-3,.cls-4{fill:#ffccb0;stroke-linecap:round;}.cls-2,.cls-3,.cls-4,.cls-5{stroke:#000;}.cls-3{stroke-width:3px;}.cls-4{stroke-miterlimit:10;}</style></defs><g id="Calque_2" data-name="Calque 2"><g id="Calque_10" data-name="Calque 10"><g id="Bras_devant" data-name="Bras devant"><circle class="cls-1" cx="43.17" cy="141.49" r="16.75"/><path class="cls-2" d="M24.28,244.74c-2.33-.76-9.65,1.67-9.65,1.67s-9.09,2.71-12.13-8.59l32.85-7.15c9.37-1,12.48-.31,17.13,4,4,3.29,4.64,8.5,4.67,14,0,5,0,17.24-5.4,20.2-5,2.78-22.58,2.7-24.51-.34-1.52-2.39-.07-13.52.49-17.31C28,249.41,28.15,246,24.28,244.74Z"/><line class="cls-3" x1="41.67" y1="270.68" x2="42" y2="262.68"/><line class="cls-3" x1="34.71" y1="269.7" x2="34.99" y2="262.87"/><line class="cls-3" x1="48.63" y1="270.04" x2="49.06" y2="263.22"/><path class="cls-4" d="M26.5,234l-.66-92.8,0-1a17,17,0,1,1,34,.33l0,1L56.48,242"/><polyline class="cls-2" points="26.21 142.69 26.21 142.65 26.25 125.33 25.35 63.68 59.35 63.32 60.17 141.31 60.15 142.3 60.15 142.34"/><path class="cls-5" d="M63.94,24.27l.41,39-44,.46-.41-39a22,22,0,1,1,44-.46Z"/></g></g></g></svg>