<svg xmlns="http://www.w3.org/2000/svg" viewBox="0 0 49.41 289.83"><defs><style>.cls-1,.cls-6{fill:#fff;}.cls-1{stroke:red;}.cls-1,.cls-2,.cls-3,.cls-5,.cls-6{stroke-linejoin:round;}.cls-1,.cls-4,.cls-5,.cls-6{stroke-width:5px;}.cls-2,.cls-4,.cls-5{fill:#ffccb0;}.cls-2,.cls-3,.cls-4,.cls-5,.cls-6{stroke:#000;}.cls-2,.cls-3,.cls-4,.cls-5{stroke-linecap:round;}.cls-2{stroke-width:4px;}.cls-3{fill:none;stroke-width:3px;}.cls-4{stroke-miterlimit:10;}</style></defs><g id="Calque_2" data-name="Calque 2"><g id="Calque_10" data-name="Calque 10"><g id="Bras_devant" data-name="Bras devant"><circle class="cls-1" cx="25.73" cy="141.49" r="16.75"/><path class="cls-2" d="M7.53,250.86,4.16,282s.15,2.83,2.65,3.35c2.93.61,3.4-2.71,3.4-2.71l4.19-19.09,1,0,2.89,21s.55,3.88,3.46,3.14a3.43,3.43,0,0,0,2.6-3.65l-1.09-15.32,5.84-1L24,248.67l-16.57-.35Z"/><path class="cls-2" d="M14.85,240.73c3,.36,5.77.54,5.77.54s9.33-2.46,9.59,9.24c0,0-17-.28-22.6-.76a12.56,12.56,0,0,1-2.8-6.1c-.32-2.48,2.63-10.44,6.44-12.79a17,17,0,0,1,6.66-2.21c8.83-.76,11.89,0,16.36,4.29,3.91,3.35,4.53,8.56,4.49,14.06,0,5-.27,17.23-5.66,20.12-1.91,1-4.56,1.64-8.49,1.82"/><polyline class="cls-3" points="23.34 268.88 24.35 250.65 30.45 250.05 29.74 266.66"/><path class="cls-3" d="M30.07,267.81,31,252.23A2.94,2.94,0,0,1,34.57,250c2.92.69,2.46,2.64,2.46,2.64l-1.07,12"/><path class="cls-3" d="M20.42,240.68s5.06-1.83,5.17-4.83"/><path class="cls-4" d="M10.06,233.52,8.4,141.22l0-1a17,17,0,0,1,17.16-16.84c9.39.09,17.43,7.78,17.34,17.17l0,1L36,235"/><polyline class="cls-5" points="8.77 142.69 8.77 142.65 8.81 125.33 7.91 63.68 41.91 63.32 42.73 141.31 42.71 142.3 42.71 142.34"/><path class="cls-6" d="M46.5,24.27l.41,39-44,.46-.41-39a22,22,0,1,1,44-.46Z"/></g></g></g></svg>