<svg xmlns="http://www.w3.org/2000/svg" viewBox="0 0 92.88 282.96"><defs><style>.cls-1,.cls-3,.cls-4,.cls-7{fill:#fff;}.cls-1{stroke:red;}.cls-1,.cls-2,.cls-3,.cls-4,.cls-6,.cls-7{stroke-linejoin:round;}.cls-1,.cls-5,.cls-6,.cls-7{stroke-width:5px;}.cls-2,.cls-5,.cls-6{fill:#ffd9b3;}.cls-2,.cls-3,.cls-4,.cls-5,.cls-6,.cls-7{stroke:#000;}.cls-2,.cls-3,.cls-4,.cls-5,.cls-6{stroke-linecap:round;}.cls-2,.cls-4{stroke-width:4px;}.cls-3{stroke-width:3px;}.cls-5{stroke-miterlimit:10;}</style></defs><g id="Calque_2" data-name="Calque 2"><g id="Calque_10" data-name="Calque 10"><g id="Bras_devant" data-name="Bras devant"><circle class="cls-1" cx="69.2" cy="141.49" r="16.75"/><path class="cls-2" d="M24.48,231.46a30.17,30.17,0,0,1-8.51,9,12.33,12.33,0,0,1-.64-6.68c.5-2.45,5.91-9,10.27-10a17.12,17.12,0,0,1,7,.09c8.59,2.19,11.22,3.93,14,9.43,2.6,4.44,1.48,9.57-.36,14.75-1.68,4.72-5.9,16.19-11.95,17.15-2.37.38-5.45,0-9.89-1.46l-3.94,14.62a3.43,3.43,0,0,1-3.66,2.6c-3-.26-2.24-4.1-2.24-4.1L18.8,256l-.93-.35L7.64,272.33s-1.53,3-4.1,1.44c-2.19-1.31-1.4-4-1.4-4l13.39-28.29"/><line class="cls-3" x1="30.72" y1="264.94" x2="33.36" y2="258.64"/><line class="cls-4" x1="24.56" y1="263.62" x2="26.4" y2="257.7"/><path class="cls-5" d="M22.28,225l31.06-88,.33-1a17,17,0,0,1,31.87,11.85l-.39.95L48.62,240.26"/><polyline class="cls-6" points="52.24 142.69 52.24 142.65 52.28 125.33 51.38 63.68 85.38 63.32 86.19 141.31 86.17 142.3 86.17 142.34"/><path class="cls-7" d="M90,24.27l.41,39-44,.46-.41-39a22,22,0,0,1,44-.46Z"/></g></g></g></svg>