<svg xmlns="http://www.w3.org/2000/svg" viewBox="0 0 155.72 161.86"><defs><style>.cls-1,.cls-5{fill:#fff;}.cls-1{stroke:red;}.cls-1,.cls-2,.cls-3,.cls-5{stroke-linejoin:round;}.cls-1,.cls-2,.cls-4,.cls-5{stroke-width:5px;}.cls-2,.cls-3,.cls-4{fill:#ffd9b3;stroke-linecap:round;}.cls-2,.cls-3,.cls-4,.cls-5{stroke:#000;}.cls-3{stroke-width:3px;}.cls-4{stroke-miterlimit:10;}</style></defs><g id="Calque_2" data-name="Calque 2"><g id="Calque_10" data-name="Calque 10"><g id="Bras_devant" data-name="Bras devant"><circle class="cls-1" cx="132.04" cy="141.49" r="16.75"/><path class="cls-2" d="M28.56,125.19c.75-2.33-1.72-9.63-1.72-9.63s-2.76-9.08,8.52-12.18l7.34,32.8c1,9.37.38,12.48-3.92,17.15-3.26,4-8.47,4.7-14,4.76-5,0-17.24,0-20.23-5.29-2.81-5-2.83-22.56.2-24.51,2.38-1.54,13.52-.14,17.31.39C23.92,128.93,27.32,129.07,28.56,125.19Z"/><line class="cls-3" x1="2.73" y1="142.74" x2="10.72" y2="143.02"/><line class="cls-3" x1="3.66" y1="135.76" x2="10.49" y2="136.01"/><line class="cls-3" x1="3.4" y1="149.69" x2="10.22" y2="150.08"/><path class="cls-4" d="M38.5,127.09l92.28-1.7,1,0a17,17,0,0,1,.06,34l-1,0-98.45-2.21"/><polyline class="cls-2" points="115.08 142.69 115.08 142.65 115.13 125.33 114.23 63.68 148.22 63.32 149.04 141.31 149.02 142.3 149.02 142.34"/><path class="cls-5" d="M152.82,24.27l.4,39-44,.46-.41-39a22,22,0,0,1,44-.46Z"/></g></g></g></svg>