<svg xmlns="http://www.w3.org/2000/svg" viewBox="0 0 84.5 267.31"><defs><style>.cls-1,.cls-6{fill:#fff;}.cls-1{stroke:red;}.cls-1,.cls-2,.cls-3,.cls-5,.cls-6{stroke-linejoin:round;}.cls-1,.cls-4,.cls-5,.cls-6{stroke-width:5px;}.cls-2,.cls-3,.cls-4,.cls-5{fill:#bc6226;stroke-linecap:round;}.cls-2,.cls-3,.cls-4,.cls-5,.cls-6{stroke:#000;}.cls-2{stroke-width:4px;}.cls-3{stroke-width:3px;}.cls-4{stroke-miterlimit:10;}</style></defs><g id="Calque_2" data-name="Calque 2"><g id="Calque_10" data-name="Calque 10"><g id="Bras_devant" data-name="Bras devant"><circle class="cls-1" cx="60.82" cy="141.49" r="16.75"/><path class="cls-2" d="M15.34,231.58s-4.61,7.79-7.87,7.95a12.3,12.3,0,0,1-.27-6.7c.64-2.42,6.39-8.66,10.81-9.4a17.18,17.18,0,0,1,7,.48c8.46,2.66,11,4.55,13.5,10.19,2.35,4.58,1,9.64-1.17,14.71-1.94,4.62-6.79,15.84-12.88,16.46-5.73.59-21.83-6.35-22.42-9.9-.46-2.79,3.5-11.05,5.49-14.32"/><line class="cls-3" x1="13.95" y1="262.76" x2="17.39" y2="255.53"/><line class="cls-3" x1="7.93" y1="259.13" x2="10.86" y2="252.96"/><line class="cls-3" x1="20.61" y1="264.9" x2="23.67" y2="258.79"/><path class="cls-4" d="M13.9,225,45,137l.33-1a17,17,0,0,1,31.87,11.85l-.38.95L40.25,240.26"/><polyline class="cls-5" points="43.86 142.69 43.86 142.65 43.9 125.33 43 63.68 77 63.32 77.82 141.31 77.8 142.3 77.8 142.34"/><path class="cls-6" d="M81.59,24.27l.41,39-44,.46-.41-39a22,22,0,0,1,44-.46Z"/></g></g></g></svg>