<svg xmlns="http://www.w3.org/2000/svg" viewBox="0 0 151.39 228.92"><defs><style>.cls-1,.cls-5{fill:#fff;}.cls-1{stroke:red;}.cls-1,.cls-2,.cls-3,.cls-5{stroke-linejoin:round;}.cls-1,.cls-2,.cls-4,.cls-5{stroke-width:5px;}.cls-2,.cls-3,.cls-4{fill:#ffd9b3;stroke-linecap:round;}.cls-2,.cls-3,.cls-4,.cls-5{stroke:#000;}.cls-3{stroke-width:3px;}.cls-4{stroke-miterlimit:10;}</style></defs><g id="Calque_2" data-name="Calque 2"><g id="Calque_10" data-name="Calque 10"><g id="Bras_devant" data-name="Bras devant"><circle class="cls-1" cx="127.71" cy="141.49" r="16.75"/><path class="cls-2" d="M25.68,190.25h0a4.19,4.19,0,0,1,0-.71L15.92,189s-9.47.59-9.89-11.1l33.62.42c10.21,1.26,12.71,2.76,16.79,9.33a14,14,0,0,1-4.52,19.27l-28,17.4A14,14,0,0,1,9.12,200.52l16.56-10.27h0"/><line class="cls-3" x1="4.46" y1="219.99" x2="26.04" y2="206.4"/><line class="cls-3" x1="2.69" y1="212.83" x2="21.46" y2="201.01"/><line class="cls-3" x1="10.05" y1="224.66" x2="28.9" y2="212.96"/><path class="cls-4" d="M39.75,179l78.33-50.69.85-.56a17,17,0,1,1,18,28.84l-.88.52L51.27,207.22"/><polyline class="cls-2" points="110.75 142.69 110.75 142.65 110.79 125.33 109.89 63.68 143.89 63.32 144.71 141.31 144.69 142.3 144.69 142.34"/><path class="cls-5" d="M148.48,24.27l.41,39-44,.46-.4-39a22,22,0,1,1,44-.46Z"/></g></g></g></svg>