<svg xmlns="http://www.w3.org/2000/svg" viewBox="0 0 157.95 161.35"><defs><style>.cls-1,.cls-3,.cls-4,.cls-7{fill:#fff;}.cls-1{stroke:red;}.cls-1,.cls-2,.cls-3,.cls-4,.cls-6,.cls-7{stroke-linejoin:round;}.cls-1,.cls-5,.cls-6,.cls-7{stroke-width:5px;}.cls-2,.cls-5,.cls-6{fill:#ffccb0;}.cls-2,.cls-3,.cls-4,.cls-5,.cls-6,.cls-7{stroke:#000;}.cls-2,.cls-3,.cls-4,.cls-5,.cls-6{stroke-linecap:round;}.cls-2,.cls-4{stroke-width:4px;}.cls-3{stroke-width:3px;}.cls-5{stroke-miterlimit:10;}</style></defs><g id="Calque_2" data-name="Calque 2"><g id="Calque_10" data-name="Calque 10"><g id="Bras_devant" data-name="Bras devant"><circle class="cls-1" cx="134.27" cy="141.49" r="16.75"/><path class="cls-2" d="M50.47,87.38a30.06,30.06,0,0,1-8-9.41,12.44,12.44,0,0,1,6.71.07c2.38.76,8.31,6.83,8.82,11.28a17.12,17.12,0,0,1-.84,7c-3.08,8.31-5.1,10.74-10.87,13-4.69,2.11-9.67.45-14.62-1.93-4.52-2.17-15.47-7.59-15.79-13.71-.12-2.39.6-5.41,2.5-9.68L4.27,78.46a3.43,3.43,0,0,1-2.19-3.91c.57-3,4.31-1.79,4.31-1.79l20.26,6.37.46-.9L11.63,66.3s-2.8-1.84-1-4.24c1.53-2,4.16-1,4.16-1L41.5,77.42"/><line class="cls-3" x1="16.52" y1="90.03" x2="22.51" y2="93.33"/><line class="cls-4" x1="18.48" y1="84.04" x2="24.18" y2="86.51"/><path class="cls-5" d="M57.13,85.46,141,126.25l.92.43A17,17,0,1,1,126.59,157l-.9-.49L39,109.91"/><polyline class="cls-6" points="117.35 125.33 116.45 63.68 150.45 63.32 151.27 141.31 151.25 142.3 151.25 142.34"/><path class="cls-7" d="M155,24.27l.41,39-44,.46-.4-39a22,22,0,1,1,44-.46Z"/></g></g></g></svg>