<svg xmlns="http://www.w3.org/2000/svg" viewBox="0 0 146.11 161.35"><defs><style>.cls-1,.cls-5{fill:#fff;}.cls-1{stroke:red;}.cls-1,.cls-2,.cls-3,.cls-5{stroke-linejoin:round;}.cls-1,.cls-2,.cls-4,.cls-5{stroke-width:5px;}.cls-2,.cls-3,.cls-4{fill:#bc6226;stroke-linecap:round;}.cls-2,.cls-3,.cls-4,.cls-5{stroke:#000;}.cls-3{stroke-width:3px;}.cls-4{stroke-miterlimit:10;}</style></defs><g id="Calque_2" data-name="Calque 2"><g id="Calque_10" data-name="Calque 10"><g id="Bras_devant" data-name="Bras devant"><circle class="cls-1" cx="122.43" cy="141.49" r="16.75"/><path class="cls-2" d="M36.47,79.6c1.74-1.73,2.9-9.35,2.9-9.35s1.71-9.34,13.16-6.91L44,95.85c-3.38,8.8-5.39,11.27-11.35,13.44-4.73,2-9.68.28-14.59-2.19-4.48-2.25-15.33-7.87-15.54-14-.19-5.76,7.85-21.34,11.44-21.68,2.81-.27,12.07,6.08,15.19,8.3C30.63,80.79,33.58,82.47,36.47,79.6Z"/><line class="cls-3" x1="5.47" y1="83.31" x2="12.44" y2="87.24"/><line class="cls-3" x1="9.5" y1="77.55" x2="15.45" y2="80.91"/><line class="cls-3" x1="2.87" y1="89.8" x2="8.75" y2="93.28"/><path class="cls-4" d="M45.29,85.46l83.9,40.79.93.43A17,17,0,1,1,114.75,157l-.9-.49L27.12,109.91"/><polyline class="cls-2" points="105.51 125.33 104.61 63.68 138.61 63.32 139.43 141.31 139.41 142.3 139.41 142.34"/><path class="cls-5" d="M143.2,24.27l.41,39-44,.46-.41-39a22,22,0,0,1,44-.46Z"/></g></g></g></svg>