<svg xmlns="http://www.w3.org/2000/svg" viewBox="0 0 101.36 348.46"><defs><style>.cls-1{fill:#fff;}.cls-1,.cls-2,.cls-3{stroke:#000;stroke-width:5px;}.cls-1,.cls-3{stroke-linejoin:round;}.cls-2,.cls-3,.cls-4{fill:#424242;}.cls-2{stroke-miterlimit:10;}</style></defs><g id="Calque_2" data-name="Calque 2"><g id="Calque_11" data-name="Calque 11"><g id="Jambe_derrière" data-name="Jambe derrière"><path class="cls-1" d="M81.33,306.61l.17,39L2.5,346l32.93-16.43-.1-22.71a23,23,0,0,1,46-.21Z"/><path class="cls-2" d="M98.54,42.5v138a40,40,0,0,1-80,0V42.5a40,40,0,0,1,80,0Z"/><path class="cls-3" d="M98.26,176.29l.6,138-80,.35-.6-138a40,40,0,1,1,80-.35Z"/><path class="cls-4" d="M21,154.25v19s11.5-32,37.5-32,37,32,37,32l.5-18.76s-5.5-23.24-38-23C27.54,131.77,21,154.25,21,154.25Z"/></g></g></g></svg>