<svg xmlns="http://www.w3.org/2000/svg" viewBox="0 0 112.25 161.45"><defs><style>.cls-1,.cls-3,.cls-6{fill:#fff;}.cls-1{stroke:red;}.cls-1,.cls-2,.cls-3,.cls-5,.cls-6{stroke-linejoin:round;}.cls-1,.cls-4,.cls-5,.cls-6{stroke-width:5px;}.cls-2,.cls-4,.cls-5{fill:#6d3207;}.cls-2,.cls-3,.cls-4,.cls-5,.cls-6{stroke:#000;}.cls-2,.cls-3,.cls-4,.cls-5{stroke-linecap:round;}.cls-2{stroke-width:4px;}.cls-3{stroke-width:3px;}.cls-4{stroke-miterlimit:10;}</style></defs><g id="Calque_2" data-name="Calque 2"><g id="Calque_10" data-name="Calque 10"><g id="Bras_devant" data-name="Bras devant"><circle class="cls-1" cx="88.57" cy="141.49" r="16.75"/><path class="cls-2" d="M36,55.94A26.68,26.68,0,0,1,33.22,45a12.52,12.52,0,0,1,6,3c1.8,1.73,4.47,9.79,3,14a17.22,17.22,0,0,1-3.82,5.9c-6.41,6.1-9.3,7.4-15.45,6.87C17.78,74.64,14,71,10.63,66.65,7.52,62.71.06,53,2.47,47.4c1.29-3,6.35-7.79,11.09-11.12l9.71-3.35L32.84,46"/><path class="cls-2" d="M31,43.68,13.34,19.08s-2.62-1.71-4.64.52-.93,3.86-.93,3.86L19.66,41.22"/><line class="cls-3" x1="10.1" y1="39.18" x2="14.79" y2="45.65"/><line class="cls-3" x1="5.03" y1="43.99" x2="8.92" y2="49.61"/><path class="cls-4" d="M42.73,58l58.45,72.72.65.78A17,17,0,1,1,75,152.37l-.6-.82L15.86,72.36"/><polyline class="cls-5" points="71.65 111.33 70.75 63.68 104.75 63.32 105.57 141.31 105.55 142.3 105.55 142.34"/><path class="cls-6" d="M109.34,24.27l.41,39-44,.46-.41-39a22,22,0,0,1,44-.46Z"/></g></g></g></svg>