<svg xmlns="http://www.w3.org/2000/svg" viewBox="0 0 66.19 273.33"><defs><style>.cls-1,.cls-5{fill:#fff;}.cls-1{stroke:red;}.cls-1,.cls-2,.cls-3,.cls-5{stroke-linejoin:round;}.cls-1,.cls-2,.cls-4,.cls-5{stroke-width:5px;}.cls-2,.cls-4{fill:#ffd9b3;}.cls-2,.cls-3,.cls-4,.cls-5{stroke:#000;}.cls-2,.cls-3,.cls-4{stroke-linecap:round;}.cls-3{fill:none;stroke-width:3px;}.cls-4{stroke-miterlimit:10;}</style></defs><g id="Calque_2" data-name="Calque 2"><g id="Calque_10" data-name="Calque 10"><g id="Bras_devant" data-name="Bras devant"><circle class="cls-1" cx="42.5" cy="141.49" r="16.75"/><path class="cls-2" d="M24.28,244.68c-2.33-.76-9.65,1.67-9.65,1.67s-9.09,2.71-12.13-8.59l32.85-7.15c9.37-1,12.48-.31,17.13,4,4,3.29,4.64,8.5,4.67,14,0,5,0,17.24-5.4,20.2-5,2.78-22.58,2.71-24.51-.34-1.52-2.38-.07-13.52.49-17.3C28,249.35,28.15,246,24.28,244.68Z"/><path class="cls-3" d="M27.72,268.58l.77-17.24a2.94,2.94,0,0,1,3.58-2.28c2.93.65,2.49,2.6,2.49,2.6L34,270"/><path class="cls-3" d="M41.72,267.6l.52-17.32s.44-1.95-2.49-2.6A2.93,2.93,0,0,0,36.17,250l-.91,19.29"/><path class="cls-3" d="M42,268.7l.77-17.25a2.94,2.94,0,0,1,3.58-2.28c2.93.66,2.49,2.61,2.49,2.61l-.5,16.61"/><path class="cls-3" d="M48.73,269.53,49.42,254A2.94,2.94,0,0,1,53,251.67c2.93.65,2.5,2.61,2.5,2.61l-.92,12"/><path class="cls-3" d="M36.2,242.57s5.08.32,8.14-3.31"/><path class="cls-4" d="M25.84,234.52l-.66-93.3,0-1a17,17,0,1,1,34,.33l0,1L55.81,240"/><polyline class="cls-2" points="25.55 142.69 25.55 142.65 25.59 125.33 24.69 63.68 58.69 63.32 59.5 141.31 59.48 142.3 59.48 142.34"/><path class="cls-5" d="M63.28,24.27l.41,39-44,.46-.41-39a22,22,0,1,1,44-.46Z"/></g></g></g></svg>