<svg xmlns="http://www.w3.org/2000/svg" viewBox="0 0 97.02 268.15"><defs><style>.cls-1,.cls-5{fill:#fff;}.cls-1{stroke:red;}.cls-1,.cls-2,.cls-3,.cls-5{stroke-linejoin:round;}.cls-1,.cls-2,.cls-4,.cls-5{stroke-width:5px;}.cls-2,.cls-3,.cls-4{fill:#ffd9b3;stroke-linecap:round;}.cls-2,.cls-3,.cls-4,.cls-5{stroke:#000;}.cls-3{stroke-width:3px;}.cls-4{stroke-miterlimit:10;}</style></defs><g id="Calque_2" data-name="Calque 2"><g id="Calque_10" data-name="Calque 10"><g id="Bras_devant" data-name="Bras devant"><circle class="cls-1" cx="73.34" cy="141.49" r="16.75"/><path class="cls-2" d="M21.21,234.22c-2-1.42-9.71-1.3-9.71-1.3s-9.48-.15-9-11.85L36,224.13c9.23,1.88,12,3.46,15.12,9,2.78,4.33,1.88,9.5.25,14.75-1.48,4.79-5.22,16.42-11.22,17.63-5.65,1.14-22.35-4.2-23.28-7.69-.73-2.73,4-12.91,5.67-16.36C23.34,239.79,24.52,236.6,21.21,234.22Z"/><line class="cls-3" x1="29.99" y1="264.19" x2="32.71" y2="256.67"/><line class="cls-3" x1="23.65" y1="261.16" x2="25.97" y2="254.74"/><line class="cls-3" x1="36.82" y1="265.68" x2="39.28" y2="259.3"/><path class="cls-4" d="M26.42,225l31.06-88,.33-1a17,17,0,0,1,31.87,11.85l-.39.95L52.76,240.26"/><polyline class="cls-2" points="56.38 142.69 56.38 142.65 56.42 125.33 55.52 63.68 89.52 63.32 90.34 141.31 90.32 142.3 90.32 142.34"/><path class="cls-5" d="M94.11,24.27l.41,39-44,.46-.41-39a22,22,0,0,1,44-.46Z"/></g></g></g></svg>