<svg xmlns="http://www.w3.org/2000/svg" viewBox="0 0 157.75 161.35"><defs><style>.cls-1,.cls-6{fill:#fff;}.cls-1{stroke:red;}.cls-1,.cls-2,.cls-3,.cls-5,.cls-6{stroke-linejoin:round;}.cls-1,.cls-4,.cls-5,.cls-6{stroke-width:5px;}.cls-2,.cls-4,.cls-5{fill:#efa26f;}.cls-2,.cls-3,.cls-4,.cls-5,.cls-6{stroke:#000;}.cls-2,.cls-3,.cls-4,.cls-5{stroke-linecap:round;}.cls-2{stroke-width:4px;}.cls-3{fill:none;stroke-width:3px;}.cls-4{stroke-miterlimit:10;}</style></defs><g id="Calque_2" data-name="Calque 2"><g id="Calque_10" data-name="Calque 10"><g id="Bras_devant" data-name="Bras devant"><circle class="cls-1" cx="134.07" cy="141.49" r="16.75"/><path class="cls-2" d="M41.45,77.09,15.05,60.28s-2.6-1.13-4.18.88c-1.84,2.37.92,4.26.92,4.26L27.05,77.64l-.47.88L6.44,71.78s-3.72-1.22-4.35,1.71a3.43,3.43,0,0,0,2.12,4l14.21,5.82L16.7,88.91l19.4,4,7.65-14.71Z"/><path class="cls-2" d="M47.29,88.15c-1.68,2.57-3,4.93-3,4.93s-1.93,9.45-12.54,4.5c0,0,7.78-15.09,10.7-19.92a12.63,12.63,0,0,1,6.71.19c2.37.81,8.19,7,8.61,11.44a17.21,17.21,0,0,1-1,7c-3.23,8.24-5.3,10.64-11.1,12.75-4.73,2-9.68.28-14.59-2.2-4.47-2.25-15.33-7.88-15.53-14-.07-2.15.55-4.81,2.13-8.41"/><polyline class="cls-3" points="18.29 83.28 34.19 92.27 32.02 98 17.44 90"/><path class="cls-3" d="M16.27,89.79l13.57,7.7a3,3,0,0,1,.4,4.23c-1.92,2.31-3.46,1-3.46,1L16.49,96.46"/><path class="cls-3" d="M44.87,93.16s-.61,5.35,2,6.77"/><path class="cls-4" d="M56.92,88.46l83.91,37.79.92.43A17,17,0,1,1,126.38,157l-.89-.49L44.75,108.91"/><polyline class="cls-5" points="117.15 125.33 116.25 63.68 150.25 63.32 151.06 141.31 151.04 142.3 151.05 142.34"/><path class="cls-6" d="M154.84,24.27l.41,39-44,.46-.41-39a22,22,0,0,1,44-.46Z"/></g></g></g></svg>