<svg xmlns="http://www.w3.org/2000/svg" viewBox="0 0 91.8 151.75"><defs><style>.cls-1{fill:#ffd9b3;}.cls-1,.cls-2{stroke:#000;stroke-linecap:round;stroke-linejoin:round;stroke-width:5px;}.cls-2{fill:#231a14;}</style></defs><g id="Calque_2" data-name="Calque 2"><g id="Calque_9" data-name="Calque 9"><g id="Tête"><path class="cls-1" d="M79.05,60.09a8.94,8.94,0,0,0-4.73,2.19"/><path class="cls-1" d="M79.28,77.94a9,9,0,0,1-4.43-1.79"/><path class="cls-1" d="M89.3,69a9,9,0,0,1-9,9,8.47,8.47,0,0,1-1-.06c0,1,0,1.73,0,2.06,0,2.1-.5,40.25-.5,40.25v8c0,.31,0,.62,0,.92a21,21,0,0,1-41.95-.29c0-.21,0-.42,0-.63V117.73A38,38,0,0,1,3.3,80s-.5-37.4-.5-39.5a38,38,0,0,1,76,0c0,1.06.13,10.29.25,19.59A8.66,8.66,0,0,1,80.3,60,9,9,0,0,1,89.3,69Z"/><path class="cls-1" d="M79.28,77.94a9,9,0,0,1-4.43-1.79"/><path class="cls-1" d="M79.05,60.09a8.94,8.94,0,0,0-4.73,2.19"/><path class="cls-1" d="M36.8,117.73a37.12,37.12,0,0,0,4.5.27,37.78,37.78,0,0,0,19.5-5.39"/></g><path class="cls-2" d="M40.45,2.53c41,.49,38.48,38.75,38.48,38.75l.52,19c-6.52,1.27-9,5-9,5s-1-17-3-29-17-13-17-13-19-1-31,0-16,14-16,14l-.8,20.27L2.54,44.66c-.07-7.82-.41-15.5,3.26-22.41C10.81,12.79,16.8,2.25,40.45,2.53Z"/></g></g></svg>