<svg xmlns="http://www.w3.org/2000/svg" viewBox="0 0 149.75 161.35"><defs><style>.cls-1,.cls-3,.cls-6{fill:#fff;}.cls-1{stroke:red;}.cls-1,.cls-2,.cls-3,.cls-5,.cls-6{stroke-linejoin:round;}.cls-1,.cls-4,.cls-5,.cls-6{stroke-width:5px;}.cls-2,.cls-4,.cls-5{fill:#efa26f;}.cls-2,.cls-3,.cls-4,.cls-5,.cls-6{stroke:#000;}.cls-2,.cls-3,.cls-4,.cls-5{stroke-linecap:round;}.cls-2{stroke-width:4px;}.cls-3{stroke-width:3px;}.cls-4{stroke-miterlimit:10;}</style></defs><g id="Calque_2" data-name="Calque 2"><g id="Calque_10" data-name="Calque 10"><g id="Bras_devant" data-name="Bras devant"><circle class="cls-1" cx="126.07" cy="141.49" r="16.75"/><path class="cls-2" d="M41.8,86.35a26.62,26.62,0,0,1-6.89-8.91,12.4,12.4,0,0,1,6.7.38c2.34.87,8,7.21,8.29,11.67a17,17,0,0,1-1.16,6.92c-3.46,8.16-5.58,10.5-11.45,12.45-4.78,1.9-9.68,0-14.52-2.6C18.36,103.88,7.67,98,7.64,91.84c0-3.28,2.72-9.67,5.75-14.61L21,70.29l14,8.23"/><path class="cls-2" d="M32.32,77.1l-26-15.56s-3.08-.53-4,2.31S3,67.77,3,67.77L21,79.34"/><line class="cls-3" x1="11.37" y1="81.27" x2="18.25" y2="85.34"/><line class="cls-3" x1="8.63" y1="87.7" x2="14.43" y2="91.31"/><path class="cls-4" d="M48.93,85.46l83.91,40.79.92.43A17,17,0,1,1,118.39,157l-.9-.49L30.76,109.91"/><polyline class="cls-5" points="109.15 125.33 108.25 63.68 142.25 63.32 143.07 141.31 143.05 142.3 143.05 142.34"/><path class="cls-6" d="M146.84,24.27l.41,39-44,.46-.41-39a22,22,0,0,1,44-.46Z"/></g></g></g></svg>