<svg xmlns="http://www.w3.org/2000/svg" viewBox="0 0 141.7 221.92"><defs><style>.cls-1,.cls-5{fill:#fff;}.cls-1{stroke:red;}.cls-1,.cls-2,.cls-3,.cls-5{stroke-linejoin:round;}.cls-1,.cls-2,.cls-4,.cls-5{stroke-width:5px;}.cls-2,.cls-4{fill:#efa26f;}.cls-2,.cls-3,.cls-4,.cls-5{stroke:#000;}.cls-2,.cls-3,.cls-4{stroke-linecap:round;}.cls-3{fill:none;stroke-width:3px;}.cls-4{stroke-miterlimit:10;}</style></defs><g id="Calque_2" data-name="Calque 2"><g id="Calque_10" data-name="Calque 10"><g id="Bras_devant" data-name="Bras devant"><circle class="cls-1" cx="118.02" cy="141.49" r="16.75"/><path class="cls-2" d="M20.8,182.5c-.66-2.35-6.75-7.09-6.75-7.09s-7.3-6.06.42-14.86L38.65,183.9c6,7.25,7.18,10.22,6.17,16.48-.55,5.11-4.5,8.58-9,11.65-4.15,2.81-14.36,9.53-19.8,6.71-5.11-2.64-14.78-17.28-13.32-20.57,1.14-2.59,11.21-7.56,14.67-9.2C19,188.18,21.89,186.43,20.8,182.5Z"/><path class="cls-3" d="M2.83,198.63,17.6,189.7a2.94,2.94,0,0,1,3.88,1.71c1.08,2.8-.78,3.52-.78,3.52L5.15,204.64"/><path class="cls-3" d="M11.41,209.73l14.7-9.17s1.87-.73.78-3.52A2.94,2.94,0,0,0,23,195.32l-16.54,10"/><path class="cls-3" d="M10.68,210.61l14.77-8.94a2.94,2.94,0,0,1,3.88,1.72c1.08,2.8-.78,3.52-.78,3.52l-14.1,8.8"/><path class="cls-3" d="M13.69,216.64,27,208.56a2.94,2.94,0,0,1,3.88,1.72c1.09,2.8-.78,3.52-.78,3.52l-10.52,5.91"/><path class="cls-3" d="M29.17,191.24s2.55,4.42,7.27,4.95"/><path class="cls-4" d="M30.06,179l78.32-50.69.85-.56a17,17,0,1,1,18,28.84l-.88.52L41.58,207.22"/><polyline class="cls-2" points="101.06 142.69 101.06 142.65 101.1 125.33 100.2 63.68 134.2 63.32 135.02 141.31 135 142.3 135 142.34"/><path class="cls-5" d="M138.79,24.27l.41,39-44,.46-.41-39a22,22,0,0,1,44-.46Z"/></g></g></g></svg>