<svg xmlns="http://www.w3.org/2000/svg" viewBox="0 0 92.19 283.25"><defs><style>.cls-1,.cls-6{fill:#fff;}.cls-1{stroke:red;}.cls-1,.cls-2,.cls-3,.cls-5,.cls-6{stroke-linejoin:round;}.cls-1,.cls-4,.cls-5,.cls-6{stroke-width:5px;}.cls-2,.cls-4,.cls-5{fill:#6d3207;}.cls-2,.cls-3,.cls-4,.cls-5,.cls-6{stroke:#000;}.cls-2,.cls-3,.cls-4,.cls-5{stroke-linecap:round;}.cls-2{stroke-width:4px;}.cls-3{fill:none;stroke-width:3px;}.cls-4{stroke-miterlimit:10;}</style></defs><g id="Calque_2" data-name="Calque 2"><g id="Calque_10" data-name="Calque 10"><g id="Bras_devant" data-name="Bras devant"><circle class="cls-1" cx="68.5" cy="141.49" r="16.75"/><path class="cls-2" d="M14.8,241.78,2.11,270.39s-.72,2.75,1.5,4c2.61,1.48,4.07-1.54,4.07-1.54l9.81-16.91.94.33L14.76,277.2s-.65,3.86,2.35,4a3.41,3.41,0,0,0,3.58-2.68l3.64-14.92,5.85.85,1-19.76-15.68-5.39Z"/><path class="cls-2" d="M24.87,234.36c2.8,1.28,5.33,2.28,5.33,2.28s9.63.5,6.31,11.72c0,0-16.07-5.44-21.29-7.61a12.64,12.64,0,0,1-.81-6.66c.45-2.47,5.69-9.14,10-10.22a17,17,0,0,1,7-.08c8.64,2,11.32,3.65,14.27,9.08,2.71,4.37,1.71,9.53,0,14.75-1.56,4.76-5.51,16.33-11.53,17.44-2.12.39-4.84.17-8.64-.85"/><polyline class="cls-3" points="24.37 263.76 30.89 246.7 36.88 248 31.14 263.6"/><path class="cls-3" d="M31.11,264.79l5.6-14.56a3,3,0,0,1,4.12-1c2.57,1.55,1.54,3.27,1.54,3.27l-4.69,11.11"/><path class="cls-3" d="M30.19,236s5.38-.2,6.39-3"/><path class="cls-4" d="M23.59,225l29.06-88,.33-1a17,17,0,0,1,31.87,11.85l-.39.95L46.93,236.26"/><polyline class="cls-5" points="51.55 142.69 51.55 142.65 51.59 125.33 50.69 63.68 84.69 63.32 85.5 141.31 85.48 142.3 85.48 142.34"/><path class="cls-6" d="M89.28,24.27l.41,39-44,.46-.41-39a22,22,0,0,1,44-.46Z"/></g></g></g></svg>