<svg xmlns="http://www.w3.org/2000/svg" viewBox="0 0 85.43 284.72"><defs><style>.cls-1,.cls-6{fill:#fff;}.cls-1{stroke:red;}.cls-1,.cls-2,.cls-3,.cls-5,.cls-6{stroke-linejoin:round;}.cls-1,.cls-4,.cls-5,.cls-6{stroke-width:5px;}.cls-2,.cls-4,.cls-5{fill:#efa26f;}.cls-2,.cls-3,.cls-4,.cls-5,.cls-6{stroke:#000;}.cls-2,.cls-3,.cls-4,.cls-5{stroke-linecap:round;}.cls-2{stroke-width:4px;}.cls-3{fill:none;stroke-width:3px;}.cls-4{stroke-miterlimit:10;}</style></defs><g id="Calque_2" data-name="Calque 2"><g id="Calque_10" data-name="Calque 10"><g id="Bras_devant" data-name="Bras devant"><circle class="cls-1" cx="64.28" cy="141.39" r="16.75"/><path class="cls-2" d="M13.84,243.36l-11.76,29s-.63,2.76,1.63,3.94c2.66,1.39,4-1.67,4-1.67L17,257.43l1,.3-3,21s-.53,3.88,2.47,4a3.41,3.41,0,0,0,3.5-2.79l3.15-15,5.88.67.38-19.8L14.48,240.9Z"/><path class="cls-2" d="M23.66,235.62c2.84,1.19,5.41,2.1,5.41,2.1s9.64.19,6.68,11.52c0,0-16.24-4.92-21.52-6.93a12.51,12.51,0,0,1-1-6.63c.36-2.47,5.39-9.31,9.69-10.54a17.23,17.23,0,0,1,7-.3c8.69,1.69,11.42,3.29,14.55,8.62,2.85,4.28,2,9.47.47,14.74C43.53,253,40,264.7,34,266c-2.11.46-4.83.33-8.66-.57"/><polyline class="cls-3" points="24.11 265.02 30.08 247.76 36.11 248.86 30.88 264.64"/><path class="cls-3" d="M30.88,265.83,36,251.1a2.94,2.94,0,0,1,4.08-1.16c2.62,1.46,1.65,3.21,1.65,3.21l-4.33,11.26"/><path class="cls-3" d="M29,237.1s5.38-.38,6.3-3.23"/><path class="cls-4" d="M22.08,226.27,48.29,137.4l.3-1a17,17,0,0,1,32.23,10.82l-.35,1L45.78,236.8"/><polyline class="cls-5" points="47.37 143.14 47.37 143.1 46.85 125.79 43.97 64.19 77.94 62.74 81.27 140.67 81.28 141.65 81.28 141.69"/><path class="cls-6" d="M81.27,23.56l1.66,39L39,64.4l-1.66-39a22,22,0,1,1,44-1.88Z"/></g></g></g></svg>