<svg xmlns="http://www.w3.org/2000/svg" viewBox="0 0 100.98 282.43"><defs><style>.cls-1,.cls-4,.cls-6{fill:#fff;}.cls-1{stroke:red;}.cls-1,.cls-3,.cls-4,.cls-6{stroke-linejoin:round;}.cls-1,.cls-3,.cls-5,.cls-6{stroke-width:5px;}.cls-2{fill:none;stroke-width:2px;}.cls-2,.cls-3,.cls-4,.cls-5,.cls-6{stroke:#000;}.cls-2,.cls-3,.cls-4,.cls-5{stroke-linecap:round;}.cls-2,.cls-5{stroke-miterlimit:10;}.cls-3,.cls-5{fill:#ffccb0;}.cls-4{stroke-width:3px;}</style></defs><g id="Calque_2" data-name="Calque 2"><g id="Calque_10" data-name="Calque 10"><g id="Bras_devant" data-name="Bras devant"><circle class="cls-1" cx="77.3" cy="141.49" r="16.75"/><line class="cls-2" x1="25.72" y1="278.73" x2="35.23" y2="255.07"/><line class="cls-2" x1="20.09" y1="273.97" x2="28.37" y2="253.39"/><line class="cls-2" x1="33.08" y1="279.19" x2="41.35" y2="258.61"/><path class="cls-3" d="M40.45,241.9a9,9,0,0,1-12.4,2.85,8.87,8.87,0,0,1-2.38-2.17h0a3.81,3.81,0,0,1-.41-.58L17,247.29s-7.32,6-14.52-3.2L30,224.72c9-5,11.92-5.22,19.08-2.29a14,14,0,0,1,7.64,18.26L44.18,271.23a14,14,0,0,1-25.91-10.62l7.4-18h0"/><line class="cls-4" x1="25.83" y1="279.11" x2="35.49" y2="255.51"/><line class="cls-4" x1="20.23" y1="274.31" x2="28.64" y2="253.78"/><line class="cls-4" x1="33.18" y1="279.62" x2="41.59" y2="259.09"/><path class="cls-5" d="M30.39,225l31.06-88,.33-1a17,17,0,1,1,31.86,11.85l-.38.95L56.73,240.26"/><polyline class="cls-3" points="60.35 142.69 60.34 142.65 60.39 125.33 59.49 63.68 93.48 63.32 94.3 141.31 94.28 142.3 94.28 142.34"/><path class="cls-6" d="M98.08,24.27l.4,39-44,.46-.41-39a22,22,0,0,1,44-.46Z"/></g></g></g></svg>