<svg xmlns="http://www.w3.org/2000/svg" viewBox="0 0 156.99 161.86"><defs><style>.cls-1,.cls-5{fill:#fff;}.cls-1{stroke:red;}.cls-1,.cls-2,.cls-3,.cls-5{stroke-linejoin:round;}.cls-1,.cls-2,.cls-4,.cls-5{stroke-width:5px;}.cls-2,.cls-4{fill:#ffccb0;}.cls-2,.cls-3,.cls-4,.cls-5{stroke:#000;}.cls-2,.cls-3,.cls-4{stroke-linecap:round;}.cls-3{fill:none;stroke-width:3px;}.cls-4{stroke-miterlimit:10;}</style></defs><g id="Calque_2" data-name="Calque 2"><g id="Calque_10" data-name="Calque 10"><g id="Bras_devant" data-name="Bras devant"><circle class="cls-1" cx="133.31" cy="141.49" r="16.75"/><path class="cls-2" d="M28.56,125.55c.75-2.33-1.72-9.63-1.72-9.63s-2.76-9.08,8.52-12.18l7.34,32.8c1,9.37.38,12.48-3.92,17.15-3.26,4-8.47,4.7-14,4.76-5,.05-17.24.05-20.23-5.29-2.81-5-2.83-22.56.2-24.51,2.38-1.54,13.52-.15,17.31.39C23.92,129.29,27.32,129.43,28.56,125.55Z"/><path class="cls-3" d="M4.68,129.13l17.25.67a2.94,2.94,0,0,1,2.3,3.57c-.63,2.93-2.59,2.51-2.59,2.51l-18.32-.45"/><path class="cls-3" d="M5.75,143.12l17.32.43S25,144,25.66,141a2.94,2.94,0,0,0-2.3-3.56l-19.29-.8"/><path class="cls-3" d="M4.65,143.45l17.25.67a3,3,0,0,1,2.3,3.57c-.64,2.93-2.59,2.51-2.59,2.51L5,149.79"/><path class="cls-3" d="M3.85,150.15l15.59.6a2.94,2.94,0,0,1,2.3,3.57c-.64,2.93-2.59,2.51-2.59,2.51l-12-.86"/><path class="cls-3" d="M30.75,137.46s-.3,5.09,3.35,8.13"/><path class="cls-4" d="M38.76,127.09l93.29-1.7,1,0a17,17,0,1,1,.05,34l-1,0-98.44-2.21"/><polyline class="cls-2" points="116.35 142.69 116.35 142.65 116.39 125.33 115.49 63.68 149.49 63.32 150.31 141.31 150.29 142.3 150.29 142.34"/><path class="cls-5" d="M154.08,24.27l.41,39-44,.46-.4-39a22,22,0,1,1,44-.46Z"/></g></g></g></svg>