<svg xmlns="http://www.w3.org/2000/svg" viewBox="0 0 49.41 288.19"><defs><style>.cls-1,.cls-3,.cls-6{fill:#fff;}.cls-1{stroke:red;}.cls-1,.cls-2,.cls-3,.cls-5,.cls-6{stroke-linejoin:round;}.cls-1,.cls-4,.cls-5,.cls-6{stroke-width:5px;}.cls-2,.cls-4,.cls-5{fill:#ffccb0;}.cls-2,.cls-3,.cls-4,.cls-5,.cls-6{stroke:#000;}.cls-2,.cls-3,.cls-4,.cls-5{stroke-linecap:round;}.cls-2{stroke-width:4px;}.cls-3{stroke-width:3px;}.cls-4{stroke-miterlimit:10;}</style></defs><g id="Calque_2" data-name="Calque 2"><g id="Calque_10" data-name="Calque 10"><g id="Bras_devant" data-name="Bras devant"><circle class="cls-1" cx="25.73" cy="141.49" r="16.75"/><path class="cls-2" d="M13.16,240.7A26.55,26.55,0,0,1,8.58,251a12.44,12.44,0,0,1-2.84-6.08c-.34-2.48,2.57-10.45,6.35-12.83a17.16,17.16,0,0,1,6.65-2.26c8.83-.81,11.89,0,16.39,4.19,3.93,3.32,4.59,8.53,4.58,14,0,5-.15,17.23-5.53,20.15-2.88,1.57-9.81,2.18-15.6,1.86l-9.69-3.39.62-16.23"/><path class="cls-2" d="M9.51,253.42,8.1,283.66s1,3,4,2.48,3.13-2.46,3.13-2.46l1.68-21.3"/><line class="cls-3" x1="23.1" y1="269.91" x2="23.43" y2="261.91"/><line class="cls-3" x1="30.06" y1="269.27" x2="30.49" y2="262.45"/><path class="cls-4" d="M9.06,234.52l-.66-93.3,0-1a17,17,0,1,1,34,.33l0,1L39,240"/><polyline class="cls-5" points="8.77 142.69 8.77 142.65 8.81 125.33 7.91 63.68 41.91 63.32 42.73 141.31 42.71 142.3 42.71 142.34"/><path class="cls-6" d="M46.5,24.27l.41,39-44,.46-.41-39a22,22,0,1,1,44-.46Z"/></g></g></g></svg>