<svg xmlns="http://www.w3.org/2000/svg" viewBox="0 0 158.94 161.35"><defs><style>.cls-1,.cls-4,.cls-6{fill:#fff;}.cls-1{stroke:red;}.cls-1,.cls-3,.cls-4,.cls-6{stroke-linejoin:round;}.cls-1,.cls-3,.cls-5,.cls-6{stroke-width:5px;}.cls-2{fill:none;stroke-width:2px;}.cls-2,.cls-3,.cls-4,.cls-5,.cls-6{stroke:#000;}.cls-2,.cls-3,.cls-4,.cls-5{stroke-linecap:round;}.cls-2,.cls-5{stroke-miterlimit:10;}.cls-3,.cls-5{fill:#ffd9b3;}.cls-4{stroke-width:3px;}</style></defs><g id="Calque_2" data-name="Calque 2"><g id="Calque_10" data-name="Calque 10"><g id="Bras_devant" data-name="Bras devant"><circle class="cls-1" cx="135.26" cy="141.49" r="16.75"/><line class="cls-2" x1="4.2" y1="75.44" x2="26.98" y2="86.91"/><line class="cls-2" x1="9.43" y1="70.23" x2="29.23" y2="80.21"/><line class="cls-2" x1="3.12" y1="82.73" x2="22.93" y2="92.71"/><path class="cls-3" d="M39.66,93.22a9,9,0,0,1,.57-14.79h0a6.62,6.62,0,0,1,.61-.37l-4.58-8.65s-5.39-7.8,4.41-14.2l17,29c4.2,9.41,4.2,12.32.68,19.21a14,14,0,0,1-18.85,6.07L10.12,94.46A14,14,0,0,1,22.89,69.54l17.34,8.89h0"/><line class="cls-4" x1="3.82" y1="75.51" x2="26.52" y2="87.14"/><line class="cls-4" x1="9.07" y1="70.34" x2="28.82" y2="80.45"/><line class="cls-4" x1="2.69" y1="82.8" x2="22.44" y2="92.91"/><path class="cls-5" d="M58.12,85.46,142,126.25l.92.43A17,17,0,1,1,127.58,157l-.9-.49L40,109.91"/><polyline class="cls-3" points="118.34 125.33 117.44 63.68 151.44 63.32 152.26 141.31 152.24 142.3 152.24 142.34"/><path class="cls-6" d="M156,24.27l.41,39-44,.46-.41-39a22,22,0,0,1,44-.46Z"/></g></g></g></svg>