<svg xmlns="http://www.w3.org/2000/svg" viewBox="0 0 49.41 272.43"><defs><style>.cls-1,.cls-6{fill:#fff;}.cls-1{stroke:red;}.cls-1,.cls-2,.cls-3,.cls-5,.cls-6{stroke-linejoin:round;}.cls-1,.cls-4,.cls-5,.cls-6{stroke-width:5px;}.cls-2,.cls-3,.cls-4,.cls-5{fill:#efa26f;stroke-linecap:round;}.cls-2,.cls-3,.cls-4,.cls-5,.cls-6{stroke:#000;}.cls-2{stroke-width:4px;}.cls-3{stroke-width:3px;}.cls-4{stroke-miterlimit:10;}</style></defs><g id="Calque_2" data-name="Calque 2"><g id="Calque_10" data-name="Calque 10"><g id="Bras_devant" data-name="Bras devant"><circle class="cls-1" cx="25.73" cy="141.49" r="16.75"/><path class="cls-2" d="M12.6,240.93s-1.24,9-4.18,10.38a12.31,12.31,0,0,1-2.85-6.08c-.34-2.48,2.56-10.46,6.34-12.84a17.11,17.11,0,0,1,6.65-2.26c8.82-.83,11.89-.06,16.39,4.17,3.94,3.31,4.6,8.53,4.6,14,0,5-.14,17.23-5.51,20.16-5.06,2.76-22.6,2.59-24.52-.47-1.5-2.39-1-11.54-.46-15.33"/><line class="cls-3" x1="23.37" y1="270.23" x2="23.75" y2="262.23"/><line class="cls-3" x1="16.41" y1="269.21" x2="16.73" y2="262.39"/><line class="cls-3" x1="30.34" y1="269.63" x2="30.8" y2="262.81"/><path class="cls-4" d="M9.06,234.52l-.66-93.3,0-1a17,17,0,1,1,34,.33l0,1L39,240"/><polyline class="cls-5" points="8.77 142.69 8.77 142.65 8.81 125.33 7.91 63.68 41.91 63.32 42.73 141.31 42.71 142.3 42.71 142.34"/><path class="cls-6" d="M46.5,24.27l.41,39-44,.46-.41-39a22,22,0,1,1,44-.46Z"/></g></g></g></svg>