<svg xmlns="http://www.w3.org/2000/svg" viewBox="0 0 96.53 268.77"><defs><style>.cls-1,.cls-5{fill:#fff;}.cls-1{stroke:red;}.cls-1,.cls-2,.cls-3,.cls-5{stroke-linejoin:round;}.cls-1,.cls-2,.cls-4,.cls-5{stroke-width:5px;}.cls-2,.cls-4{fill:#ffd9b3;}.cls-2,.cls-3,.cls-4,.cls-5{stroke:#000;}.cls-2,.cls-3,.cls-4{stroke-linecap:round;}.cls-3{fill:none;stroke-width:3px;}.cls-4{stroke-miterlimit:10;}</style></defs><g id="Calque_2" data-name="Calque 2"><g id="Calque_10" data-name="Calque 10"><g id="Bras_devant" data-name="Bras devant"><circle class="cls-1" cx="72.85" cy="141.49" r="16.75"/><path class="cls-2" d="M21,234.6c-2-1.46-9.68-1.45-9.68-1.45s-9.49-.29-8.82-12L36,224.72c9.21,2,11.95,3.63,15,9.19,2.72,4.37,1.74,9.53,0,14.76-1.55,4.76-5.46,16.34-11.48,17.47-5.66,1.05-22.28-4.53-23.16-8-.69-2.74,4.19-12.85,5.9-16.28C23.09,240.19,24.31,237,21,234.6Z"/><path class="cls-3" d="M16.79,258.37l6.15-16.13a2.93,2.93,0,0,1,4.11-1c2.57,1.54,1.55,3.26,1.55,3.26l-6.28,17.21"/><path class="cls-3" d="M30.38,261.83l5.95-16.27s1-1.72-1.55-3.26a2.94,2.94,0,0,0-4.12,1l-6.92,18"/><path class="cls-3" d="M30.34,263l6.15-16.13a2.94,2.94,0,0,1,4.12-1c2.57,1.54,1.54,3.26,1.54,3.26l-5.69,15.61"/><path class="cls-3" d="M36.43,265.88,42,251.3a2.93,2.93,0,0,1,4.11-1c2.57,1.54,1.55,3.26,1.55,3.26L43,264.65"/><path class="cls-3" d="M33,236.33s4.73,1.92,8.77-.57"/><path class="cls-4" d="M25.93,225,57,137l.32-1a17,17,0,0,1,31.87,11.85l-.38.95L52.28,240.26"/><polyline class="cls-2" points="55.89 142.69 55.89 142.65 55.93 125.33 55.03 63.68 89.03 63.32 89.85 141.31 89.83 142.3 89.83 142.34"/><path class="cls-5" d="M93.62,24.27l.41,39-44,.46-.41-39a22,22,0,1,1,44-.46Z"/></g></g></g></svg>