<svg xmlns="http://www.w3.org/2000/svg" viewBox="0 0 49.41 291.14"><defs><style>.cls-1,.cls-3,.cls-4,.cls-7{fill:#fff;}.cls-1{stroke:red;}.cls-1,.cls-2,.cls-3,.cls-4,.cls-6,.cls-7{stroke-linejoin:round;}.cls-1,.cls-5,.cls-6,.cls-7{stroke-width:5px;}.cls-2,.cls-5,.cls-6{fill:#6d3207;}.cls-2,.cls-3,.cls-4,.cls-5,.cls-6,.cls-7{stroke:#000;}.cls-2,.cls-3,.cls-4,.cls-5,.cls-6{stroke-linecap:round;}.cls-2,.cls-4{stroke-width:4px;}.cls-3{stroke-width:3px;}.cls-5{stroke-miterlimit:10;}</style></defs><g id="Calque_2" data-name="Calque 2"><g id="Calque_10" data-name="Calque 10"><g id="Bras_devant" data-name="Bras devant"><circle class="cls-1" cx="25.73" cy="141.49" r="16.75"/><path class="cls-2" d="M13.65,239.8a30.1,30.1,0,0,1-5.1,11.25A12.32,12.32,0,0,1,5.75,245c-.32-2.49,2.63-10.44,6.44-12.79A17.13,17.13,0,0,1,18.85,230c8.83-.76,11.89,0,16.36,4.3,3.91,3.34,4.53,8.56,4.49,14.05,0,5-.26,17.23-5.66,20.12-2.11,1.13-5.15,1.78-9.82,1.87l1.07,15.11a3.42,3.42,0,0,1-2.6,3.64c-2.91.75-3.46-3.13-3.46-3.13l-2.89-21.05-1,0-4.19,19.09s-.46,3.31-3.4,2.71c-2.5-.52-2.65-3.36-2.65-3.36l3.37-31.11"/><line class="cls-3" x1="30.53" y1="269.38" x2="30.95" y2="262.56"/><line class="cls-4" x1="24.27" y1="270.16" x2="24.07" y2="263.96"/><path class="cls-5" d="M9.06,234.52l-.66-93.3,0-1a17,17,0,1,1,34,.33l0,1L39,240"/><polyline class="cls-6" points="8.77 142.69 8.77 142.65 8.81 125.33 7.91 63.68 41.91 63.32 42.73 141.31 42.71 142.3 42.71 142.34"/><path class="cls-7" d="M46.5,24.27l.41,39-44,.46-.41-39a22,22,0,1,1,44-.46Z"/></g></g></g></svg>