<svg xmlns="http://www.w3.org/2000/svg" viewBox="0 0 115.21 161.45"><defs><style>.cls-1,.cls-6{fill:#fff;}.cls-1{stroke:red;}.cls-1,.cls-2,.cls-3,.cls-5,.cls-6{stroke-linejoin:round;}.cls-1,.cls-4,.cls-5,.cls-6{stroke-width:5px;}.cls-2,.cls-4,.cls-5{fill:#bc6226;}.cls-2,.cls-3,.cls-4,.cls-5,.cls-6{stroke:#000;}.cls-2,.cls-3,.cls-4,.cls-5{stroke-linecap:round;}.cls-2{stroke-width:4px;}.cls-3{fill:none;stroke-width:3px;}.cls-4{stroke-miterlimit:10;}</style></defs><g id="Calque_2" data-name="Calque 2"><g id="Calque_10" data-name="Calque 10"><g id="Bras_devant" data-name="Bras devant"><circle class="cls-1" cx="91.53" cy="141.49" r="16.75"/><path class="cls-2" d="M35.58,43l-15-27.49s-1.73-2.25-4.08-1.25c-2.76,1.17-1.25,4.17-1.25,4.17l7.43,18.08-.84.54L7.52,21.41s-2.66-2.87-4.63-.61a3.41,3.41,0,0,0-.06,4.48l9.62,12L8.21,41.37,23.27,54.22l13.81-9.16Z"/><path class="cls-2" d="M35.34,55.51c-2.72,1.44-5.05,2.84-5.05,2.84S24,65.69,17.15,56.22c0,0,14.1-9.44,19-12.25a12.62,12.62,0,0,1,5.78,3.42c1.68,1.85,3.78,10.07,2,14.17a17.14,17.14,0,0,1-4.22,5.62c-6.82,5.65-9.79,6.75-15.89,5.79-5.12-.52-8.61-4.45-11.7-9C9.3,59.84,2.52,49.67,5.31,44.22c1-1.92,2.81-3.95,5.93-6.34"/><polyline class="cls-3" points="12.33 37.21 21.89 52.77 17.21 56.73 8.33 42.68"/><path class="cls-3" d="M7.41,41.93l8.14,13.31a3,3,0,0,1-1.7,3.89c-2.79,1.09-3.52-.77-3.52-.77l-6-10.49"/><path class="cls-3" d="M30.79,58.73s-3.12,4.39-1.49,6.91"/><path class="cls-4" d="M43.69,60l60.45,70.72.65.78a17,17,0,1,1-26.85,20.86l-.6-.82L22.82,72.36"/><polyline class="cls-5" points="74.61 111.33 73.71 63.68 107.71 63.32 108.53 141.31 108.51 142.3 108.51 142.34"/><path class="cls-6" d="M112.3,24.27l.41,39-44,.46-.4-39a22,22,0,1,1,44-.46Z"/></g></g></g></svg>