<svg xmlns="http://www.w3.org/2000/svg" viewBox="0 0 95.89 156.2"><defs><style>.cls-1{fill:#6d3207;}.cls-1,.cls-2,.cls-3{stroke:#000;stroke-linecap:round;stroke-linejoin:round;stroke-width:5px;}.cls-2{fill:#0c0500;}.cls-3{fill:#fff;}</style></defs><g id="Calque_2" data-name="Calque 2"><g id="Calque_9" data-name="Calque 9"><g id="Tête"><path class="cls-1" d="M83.14,64.54a8.94,8.94,0,0,0-4.73,2.19"/><path class="cls-1" d="M83.37,82.39a9,9,0,0,1-4.43-1.79"/><path class="cls-1" d="M93.39,73.45a9,9,0,0,1-9,9,8.47,8.47,0,0,1-1-.06c0,1,0,1.73,0,2.06,0,2.1-.5,40.25-.5,40.25v8c0,.31,0,.62,0,.92a21,21,0,0,1-41.95-.29c0-.21,0-.42,0-.63V122.18A38,38,0,0,1,7.39,84.45s-.5-37.4-.5-39.5a38,38,0,0,1,76,0c0,1.06.13,10.29.25,19.59a8.66,8.66,0,0,1,1.25-.09A9,9,0,0,1,93.39,73.45Z"/><path class="cls-1" d="M83.37,82.39a9,9,0,0,1-4.43-1.79"/><path class="cls-1" d="M83.14,64.54a8.94,8.94,0,0,0-4.73,2.19"/><path class="cls-1" d="M40.89,122.18a37.12,37.12,0,0,0,4.5.27,37.78,37.78,0,0,0,19.5-5.39"/></g><path class="cls-2" d="M2.5,68.2h9.07v-20a32.55,32.55,0,0,1,4.91-17.46c3.83-6,10.41-12.07,21.41-12.07,22,0,27.78,12.5,28.39,24.75s0,24.75,0,24.75H89.52V36.42a35.66,35.66,0,0,0-6.31-20.57A29.31,29.31,0,0,0,64.89,3.7C45.89-.3,37.63,7,37.63,7S26.89-1.3,13.89,8.7a27.5,27.5,0,0,0-11,23Z"/><line class="cls-3" x1="37.89" y1="8.7" x2="37.89" y2="17.7"/></g></g></svg>