<svg xmlns="http://www.w3.org/2000/svg" viewBox="0 0 150.1 169.43"><defs><style>.cls-1{fill:#231a14;}.cls-1,.cls-2{stroke:#000;stroke-linecap:round;stroke-linejoin:round;stroke-width:5px;}.cls-2{fill:#ffd9b3;}</style></defs><g id="Calque_2" data-name="Calque 2"><g id="Calque_9" data-name="Calque 9"><path class="cls-1" d="M70.29,143.12s-11.24,8.18-20.62,0c0,0-16.14,5.92-21.26-10.13,0,0-17.12-2.06-14.12-16.06,0,0-13-6-7.14-19.37,0,0-9.86-10.63-.86-22.63,0,0-7-12,4-20,0,0-6.14-12,5.93-20,0,0,1.15-13.41,13.61-15.2,0,0,5.46-9.8,16.46-9.8,0,0,8-11,20-4,0,0,11-7,20-1,0,0,13-4,21,5,0,0,13.26.8,15,11,0,0,15,1,14,15,6.23,3.83,11,13,7,22,0,0,8,9,0,20,0,0,9,11,1,19,0,0,9,14-4,21,0,0,6,15-8,18,0,0-4,14-22,8,0,0-10,7-21,1C89.29,144.93,79.29,153.3,70.29,143.12Z"/><g id="Tête"><path class="cls-2" d="M110.54,77.77A8.94,8.94,0,0,0,105.81,80"/><path class="cls-2" d="M110.77,95.62a9,9,0,0,1-4.43-1.79"/><path class="cls-2" d="M120.79,86.68a9,9,0,0,1-9,9,8.47,8.47,0,0,1-1-.06c0,1,0,1.73,0,2.06,0,2.1-.5,40.25-.5,40.25v8c0,.31,0,.62,0,.92a21,21,0,0,1-41.95-.29c0-.21,0-.42,0-.63V135.41a38,38,0,0,1-33.5-37.73s-.5-37.4-.5-39.5a38,38,0,0,1,76,0c0,1.06.13,10.29.25,19.59a8.66,8.66,0,0,1,1.25-.09A9,9,0,0,1,120.79,86.68Z"/><path class="cls-2" d="M110.77,95.62a9,9,0,0,1-4.43-1.79"/><path class="cls-2" d="M110.54,77.77A8.94,8.94,0,0,0,105.81,80"/><path class="cls-2" d="M68.29,135.41a37.12,37.12,0,0,0,4.5.27,37.78,37.78,0,0,0,19.5-5.39"/></g><path class="cls-1" d="M39.29,33.93s-.1-12,12-10c0,0,8-10.75,17-3,0,0,11-6.75,15,1,0,0,11-3.1,12,6,0,0,9,0,9,8,0,0,9.5,2.18,6.25,11.09,0,0,6.75,2.91,4.75,8.91,0,0,7,4,3,11,0,0,9,6,0,13,0,0-6-6-12.48,0,0,0-7.52-4-1.52-11,0,0-9-4-6-12,0,0-11,0-11-10,0,0-10.5,1.31-9.75-7.85,0,0-9.25,1.85-11.25-8.65,0,0-4,11.5-9,9.5,0,0,2.13,13.84-7.93,11.42,0,0,2.82,12.54-8.12,10.56,0,0,1,15-10,11s-8-14.11-5-13c0,0-5-9,4-13C30.29,46.93,28.29,32.93,39.29,33.93Z"/></g></g></svg>