<svg xmlns="http://www.w3.org/2000/svg" viewBox="0 0 151.76 229.5"><defs><style>.cls-1,.cls-4,.cls-6{fill:#fff;}.cls-1{stroke:red;}.cls-1,.cls-3,.cls-4,.cls-6{stroke-linejoin:round;}.cls-1,.cls-3,.cls-5,.cls-6{stroke-width:5px;}.cls-2{fill:none;stroke-width:2px;}.cls-2,.cls-3,.cls-4,.cls-5,.cls-6{stroke:#000;}.cls-2,.cls-3,.cls-4,.cls-5{stroke-linecap:round;}.cls-2,.cls-5{stroke-miterlimit:10;}.cls-3,.cls-5{fill:#ffccb0;}.cls-4{stroke-width:3px;}</style></defs><g id="Calque_2" data-name="Calque 2"><g id="Calque_10" data-name="Calque 10"><g id="Bras_devant" data-name="Bras devant"><circle class="cls-1" cx="128.07" cy="141.49" r="16.75"/><line class="cls-2" x1="4.58" y1="220.23" x2="26.06" y2="206.48"/><line class="cls-2" x1="2.76" y1="213.09" x2="21.44" y2="201.13"/><line class="cls-2" x1="10.31" y1="224.88" x2="28.99" y2="212.92"/><path class="cls-3" d="M38,198.79a9,9,0,0,1-11.76-4.88,9.15,9.15,0,0,1-.68-3.15h0a5.61,5.61,0,0,1,0-.71l-9.78-.47s-9.46.67-10-11l33.61.16c10.23,1.18,12.74,2.67,16.87,9.21a14,14,0,0,1-4.37,19.3L24,224.83A14,14,0,0,1,9,201.16l16.48-10.4h0"/><line class="cls-4" x1="4.45" y1="220.6" x2="26.01" y2="206.99"/><line class="cls-4" x1="2.67" y1="213.45" x2="21.43" y2="201.61"/><line class="cls-4" x1="10.15" y1="225.28" x2="28.9" y2="213.45"/><path class="cls-5" d="M40.11,179l78.33-50.69.85-.56a17,17,0,1,1,18,28.84l-.88.52L51.63,207.22"/><polyline class="cls-3" points="111.12 142.69 111.12 142.65 111.16 125.33 110.26 63.68 144.26 63.32 145.07 141.31 145.05 142.3 145.05 142.34"/><path class="cls-6" d="M148.85,24.27l.41,39-44,.46-.41-39a22,22,0,0,1,44-.46Z"/></g></g></g></svg>