<svg xmlns="http://www.w3.org/2000/svg" viewBox="0 0 155.91 161.86"><defs><style>.cls-1,.cls-6{fill:#fff;}.cls-1{stroke:red;}.cls-1,.cls-2,.cls-3,.cls-5,.cls-6{stroke-linejoin:round;}.cls-1,.cls-4,.cls-5,.cls-6{stroke-width:5px;}.cls-2,.cls-3,.cls-4,.cls-5{fill:#ffd9b3;stroke-linecap:round;}.cls-2,.cls-3,.cls-4,.cls-5,.cls-6{stroke:#000;}.cls-2{stroke-width:4px;}.cls-3{stroke-width:3px;}.cls-4{stroke-miterlimit:10;}</style></defs><g id="Calque_2" data-name="Calque 2"><g id="Calque_10" data-name="Calque 10"><g id="Bras_devant" data-name="Bras devant"><circle class="cls-1" cx="132.23" cy="141.49" r="16.75"/><path class="cls-2" d="M31.45,130.68s-9-1.19-10.39-4.12a12.21,12.21,0,0,1,6.06-2.88c2.48-.36,10.47,2.5,12.87,6.27a17.07,17.07,0,0,1,2.3,6.63c.87,8.82.13,11.89-4.08,16.42-3.29,3.95-8.5,4.64-14,4.67-5,0-17.23,0-20.19-5.4-2.78-5-2.71-22.58.34-24.51,2.38-1.52,11.54-1.11,15.32-.55"/><line class="cls-3" x1="2.22" y1="141.61" x2="10.22" y2="141.94"/><line class="cls-3" x1="3.2" y1="134.65" x2="10.02" y2="134.93"/><line class="cls-3" x1="2.85" y1="148.57" x2="9.68" y2="149"/><path class="cls-4" d="M37.68,127.09l93.28-1.7,1,0a17,17,0,0,1,.06,34l-1,0-98.44-2.21"/><polyline class="cls-5" points="115.27 142.69 115.27 142.65 115.31 125.33 114.41 63.68 148.41 63.32 149.23 141.31 149.21 142.3 149.21 142.34"/><path class="cls-6" d="M153,24.27l.41,39-44,.46-.41-39a22,22,0,0,1,44-.46Z"/></g></g></g></svg>