<svg xmlns="http://www.w3.org/2000/svg" viewBox="0 0 141.61 221.73"><defs><style>.cls-1,.cls-6{fill:#fff;}.cls-1{stroke:red;}.cls-1,.cls-2,.cls-3,.cls-5,.cls-6{stroke-linejoin:round;}.cls-1,.cls-4,.cls-5,.cls-6{stroke-width:5px;}.cls-2,.cls-3,.cls-4,.cls-5{fill:#efa26f;stroke-linecap:round;}.cls-2,.cls-3,.cls-4,.cls-5,.cls-6{stroke:#000;}.cls-2{stroke-width:4px;}.cls-3{stroke-width:3px;}.cls-4{stroke-miterlimit:10;}</style></defs><g id="Calque_2" data-name="Calque 2"><g id="Calque_10" data-name="Calque 10"><g id="Bras_devant" data-name="Bras devant"><circle class="cls-1" cx="117.93" cy="141.49" r="16.75"/><path class="cls-2" d="M25.87,185.63s-8,4.26-10.86,2.69a12.36,12.36,0,0,1,3.26-5.86c1.81-1.73,10-4.06,14.12-2.39a17.25,17.25,0,0,1,5.73,4.06c5.83,6.67,7,9.61,6.22,15.73-.38,5.13-4.21,8.72-8.67,11.94-4.06,2.94-14,10-19.57,7.35C10.91,216.67.77,202.36,2.12,199c1.06-2.62,8.75-7.61,12.15-9.36"/><line class="cls-3" x1="8.44" y1="211.53" x2="15.14" y2="207.15"/><line class="cls-3" x1="5.19" y1="205.29" x2="10.91" y2="201.56"/><line class="cls-3" x1="13.01" y1="216.82" x2="18.81" y2="213.21"/><path class="cls-4" d="M30,179l78.32-50.69.85-.56a17,17,0,1,1,18,28.84l-.88.52L41.49,207.22"/><polyline class="cls-5" points="100.97 142.69 100.97 142.65 101.01 125.33 100.11 63.68 134.11 63.32 134.93 141.31 134.91 142.3 134.91 142.34"/><path class="cls-6" d="M138.7,24.27l.41,39-44,.46-.41-39a22,22,0,0,1,44-.46Z"/></g></g></g></svg>