<svg xmlns="http://www.w3.org/2000/svg" viewBox="0 0 121.67 161.45"><defs><style>.cls-1,.cls-4,.cls-6{fill:#fff;}.cls-1{stroke:red;}.cls-1,.cls-3,.cls-4,.cls-6{stroke-linejoin:round;}.cls-1,.cls-3,.cls-5,.cls-6{stroke-width:5px;}.cls-2{fill:none;stroke-width:2px;}.cls-2,.cls-3,.cls-4,.cls-5,.cls-6{stroke:#000;}.cls-2,.cls-3,.cls-4,.cls-5{stroke-linecap:round;}.cls-2,.cls-5{stroke-miterlimit:10;}.cls-3,.cls-5{fill:#bc6226;}.cls-4{stroke-width:3px;}</style></defs><g id="Calque_2" data-name="Calque 2"><g id="Calque_10" data-name="Calque 10"><g id="Bras_devant" data-name="Bras devant"><circle class="cls-1" cx="97.99" cy="141.49" r="16.75"/><line class="cls-2" x1="8.4" y1="25.86" x2="23.71" y2="46.26"/><line class="cls-2" x1="15.39" y1="23.52" x2="28.71" y2="41.26"/><line class="cls-2" x1="4.19" y1="31.92" x2="17.51" y2="49.66"/><path class="cls-3" d="M32.27,57.55a9,9,0,0,1,7.08-13h0a4.36,4.36,0,0,1,.72-.05l-.26-9.79S38.44,25.33,50.06,24l2.33,33.54C52,67.78,50.68,70.39,44.47,75a14,14,0,0,1-19.58-2.93L5.25,45.54A14,14,0,0,1,27.76,28.88L39.35,44.55h0"/><line class="cls-4" x1="8.02" y1="25.76" x2="23.2" y2="46.26"/><line class="cls-4" x1="15.03" y1="23.46" x2="28.23" y2="41.29"/><line class="cls-4" x1="3.78" y1="31.79" x2="16.98" y2="49.62"/><path class="cls-5" d="M52.15,58l58.45,72.72.65.78A17,17,0,1,1,84.4,152.37l-.61-.82L25.27,72.36"/><polyline class="cls-3" points="81.07 111.33 80.17 63.68 114.17 63.32 114.98 141.31 114.97 142.3 114.97 142.34"/><path class="cls-6" d="M118.76,24.27l.41,39-44,.46-.41-39a22,22,0,0,1,44-.46Z"/></g></g></g></svg>