<svg xmlns="http://www.w3.org/2000/svg" viewBox="0 0 155.75 221.41"><defs><style>.cls-1,.cls-3,.cls-6{fill:#fff;}.cls-1{stroke:red;}.cls-1,.cls-2,.cls-3,.cls-5,.cls-6{stroke-linejoin:round;}.cls-1,.cls-4,.cls-5,.cls-6{stroke-width:5px;}.cls-2,.cls-4,.cls-5{fill:#ffccb0;}.cls-2,.cls-3,.cls-4,.cls-5,.cls-6{stroke:#000;}.cls-2,.cls-3,.cls-4,.cls-5{stroke-linecap:round;}.cls-2{stroke-width:4px;}.cls-3{stroke-width:3px;}.cls-4{stroke-miterlimit:10;}</style></defs><g id="Calque_2" data-name="Calque 2"><g id="Calque_10" data-name="Calque 10"><g id="Bras_devant" data-name="Bras devant"><circle class="cls-1" cx="132.07" cy="141.49" r="16.75"/><path class="cls-2" d="M40.83,185.78a26.51,26.51,0,0,1-11,2.16,12.44,12.44,0,0,1,3.34-5.81c1.84-1.71,10-3.91,14.15-2.18a17.1,17.1,0,0,1,5.67,4.15c5.74,6.75,6.88,9.7,6,15.81-.45,5.13-4.34,8.66-8.84,11.82-4.1,2.87-14.19,9.77-19.68,7.05-2.93-1.45-7.42-6.77-10.47-11.7l-2.8-9.88,13.63-8.82"/><path class="cls-2" d="M28.31,190.11,2.76,206.33S.9,208.85,3,211s3.81,1.15,3.81,1.15l18.39-10.87"/><line class="cls-3" x1="22.63" y1="210.7" x2="29.37" y2="206.38"/><line class="cls-3" x1="27.15" y1="216.03" x2="32.98" y2="212.47"/><path class="cls-4" d="M44.11,179l78.33-50.69.85-.56a17,17,0,1,1,18,28.84l-.88.52L55.63,207.22"/><polyline class="cls-5" points="115.11 142.69 115.11 142.65 115.15 125.33 114.25 63.68 148.25 63.32 149.07 141.31 149.05 142.3 149.05 142.34"/><path class="cls-6" d="M152.84,24.27l.41,39-44,.46-.41-39a22,22,0,0,1,44-.46Z"/></g></g></g></svg>