<svg xmlns="http://www.w3.org/2000/svg" viewBox="0 0 144.17 161.35"><defs><style>.cls-1,.cls-6{fill:#fff;}.cls-1{stroke:red;}.cls-1,.cls-2,.cls-3,.cls-5,.cls-6{stroke-linejoin:round;}.cls-1,.cls-4,.cls-5,.cls-6{stroke-width:5px;}.cls-2,.cls-3,.cls-4,.cls-5{fill:#ffd9b3;stroke-linecap:round;}.cls-2,.cls-3,.cls-4,.cls-5,.cls-6{stroke:#000;}.cls-2{stroke-width:4px;}.cls-3{stroke-width:3px;}.cls-4{stroke-miterlimit:10;}</style></defs><g id="Calque_2" data-name="Calque 2"><g id="Calque_10" data-name="Calque 10"><g id="Bras_devant" data-name="Bras devant"><circle class="cls-1" cx="120.49" cy="141.49" r="16.75"/><path class="cls-2" d="M36.25,85.91s-7.46-5.13-7.39-8.4a12.4,12.4,0,0,1,6.71.2c2.37.8,8.19,7,8.62,11.43a17.14,17.14,0,0,1-1,7c-3.23,8.25-5.29,10.65-11.09,12.77-4.73,2-9.68.28-14.59-2.19C13.06,104.42,2.21,98.8,2,92.68,1.81,86.93,9.85,71.34,13.44,71c2.81-.27,10.78,4.25,13.9,6.47"/><line class="cls-3" x1="5.24" y1="82.37" x2="12.21" y2="86.3"/><line class="cls-3" x1="9.28" y1="76.61" x2="15.23" y2="79.96"/><line class="cls-3" x1="2.64" y1="88.86" x2="8.52" y2="92.34"/><path class="cls-4" d="M43.35,85.46l83.91,40.79.92.43A17,17,0,1,1,112.81,157l-.9-.49L25.18,109.91"/><polyline class="cls-5" points="103.57 125.33 102.67 63.68 136.67 63.32 137.49 141.31 137.47 142.3 137.47 142.34"/><path class="cls-6" d="M141.26,24.27l.41,39-44,.46-.4-39a22,22,0,1,1,44-.46Z"/></g></g></g></svg>